<svg width="532" height="140" fill="none" xmlns="http://www.w3.org/2000/svg"><path fill-rule="evenodd" clip-rule="evenodd" d="M484.538 139.747c.458 0 2.989-.425 3.655-.527 12.436-1.91 21.548-7.413 26.567-22.612 3.416-10.347 17.049-52.286 17.049-52.286H517.34l-11.577 39.6h-2.325l-8.758-39.6h-15.032l14.647 51.931h7.89s-.317 1.034-.555 1.85c-1.684 5.782-10.649 9.694-18.95 10.785l1.858 10.859zm-142.055-23.524V76.014c1.548-.515 5.368-1.136 9.702-1.136 2.272 0 5.871.171 7.727.378V63.529c-1.444-.414-5.353-.537-8.965-.537-9.083 0-17.754 2.378-22.295 4.548v48.683h13.831zm137.046-.023l.494-10.497c-.545.123-2.036.456-3.44.456-4.687 0-6.069-3.047-6.069-7.225V42.037l-13.831 6.243v53.326c0 7.639 3.788 15.268 14.738 15.268 4.343 0 7.552-.569 8.108-.674zm-28.435 0l.494-10.497c-.545.123-2.036.456-3.44.456-4.688 0-6.07-3.047-6.07-7.225V42.037l-13.831 6.243v53.326c0 7.639 3.789 15.268 14.739 15.268 4.342 0 7.551-.569 8.108-.674zm-49.615.023V64.251l13.831.071v51.901h-13.831zm6.812-58.051c-4.231 0-7.43-1.654-7.43-7.648 0-5.477 2.89-7.752 7.43-7.752 4.645 0 7.639 1.758 7.639 7.649 0 5.684-2.788 7.75-7.639 7.75zM308.194 84.49v-1.139c0-7.027-3.106-10.23-10.674-10.23-7.74 0-10.81 4.236-11.017 11.369h21.691zm-6.329 21.496c7.779 0 12.592-1.715 14.994-2.453l1.342 10.336c-2.018.93-8.633 3.694-17.203 3.694-18.785 0-28.531-9.642-28.531-28.245 0-18.815 9.32-26.43 25.405-26.43 17.538 0 23.121 9.715 23.121 26.148 0 1.756-.105 4.238-.311 5.169h-34.385c0 9.379 6.898 11.781 15.568 11.781zm-62.271 10.236V93.378h3.289l16.707 22.845h15.482L253.59 86.045l19.551-21.723h-15.115l-15.493 17.48h-2.939V42.037l-13.831 6.243v67.943h13.831zm142.156.651c5.503 0 9.079-.853 9.672-1.006l.619-10.647c-.475.2-3.142.942-4.845.942-6.353 0-8.366-4.523-8.366-10.518v-19.01h14.782V64.322H378.83V53.243l-13.669 6.242v40.056c0 11.902 6.206 17.333 16.589 17.333zM202.628 94.481c-2.484-.395-7.08-1.061-10.889-1.061-8.969 0-9.723 3.718-9.723 6.961 0 5.262 2.382 7.205 10.083 7.205 5.027 0 8.67-.802 10.529-1.319V94.481zm-11.356 23.032c-17.439 0-22.341-5.472-22.341-16.797 0-11.556 5.052-16.717 21.882-16.717 5.293 0 10.249.794 11.815 1.007V81.56c0-4.158-2.196-7.197-13.247-7.197-8.783 0-13.745 2.5-15.474 3.178l-1.068-10.748c2.283-.901 9.569-3.903 20.469-3.903 16.389 0 22.945 6.997 22.945 20.471v30.187c-3.923 1.757-14.007 3.966-24.981 3.966zm-55.304-11.185c10.759 0 14.059-6.115 14.059-16.069 0-9.652-3.451-15.787-14.059-15.787-3.096 0-5.898.614-9.2 1.647v28.564c2.399.788 5.809 1.645 9.2 1.645zM112.937 48.28l13.831-6.243v23.126c3.613-1.138 6.462-2.274 13.689-2.274 15.667 0 23.275 8.354 23.275 27.371 0 22.282-8.737 27.304-28.811 27.304-9.599 0-17.855-1.654-21.984-3.515v-65.77zM62.32 2.553C58.706.767 53.11 0 47.715 0 23.275 0 0 13.796 0 37.032c0 8.207 2.603 16.981 7.146 24.843 5.135 8.89 12.257 17.016 20.758 22.793 6.452 4.383 13.923 7.44 21.643 7.44 6.429 0 10.746-1.764 12.242-2.997-.648.103-2.202.331-4.122.331-20.311 0-34.134-18.105-39.311-31.256-1.995-5.068-3.48-11.158-3.48-17.204 0-24.736 22.118-38.32 43.72-38.32 1.209 0 2.427.04 3.65.125.094.006.153-.052.153-.118 0-.041-.025-.085-.08-.116zm3.754 36.755c-10.672 0-19.553 7.958-19.553 18.557 0 9.827 8.033 19.149 19.76 19.149 2.71 0 5.41-.605 7.886-1.729.424-.192.98-.375 1.345-.668.3-.243.442-.668.644-1.007 3.129-5.25 6.63-17.27 7.136-24.004.05-.691-.142-.942-.552-1.498-2.771-3.755-8.163-8.8-16.666-8.8zm17.631.833c0 .907-.02 2.867-.042 3.76-3.976-7.007-11.705-11.036-19.703-11.036-11.67 0-22.338 10.245-22.338 23.79 0 13.319 10.704 22.93 22.71 22.93 3.287 0 6.572-.724 9.579-2.18a40.403 40.403 0 01-4.35 5.572c-.724.77-1.475 1.742-2.476 2.11-1.139.42-3.53 1.376-7.792 1.376-14.267 0-23.973-10.59-28.524-17.4-4.538-6.791-8.457-15.895-8.457-25.633 0-19.42 16.126-29.429 33.831-29.429 19.27 0 27.562 15.342 27.562 26.14z" fill="#000"/></svg>
