<svg width="2559" height="1707" fill="none" xmlns="http://www.w3.org/2000/svg"><path d="M2559 0H0v722l15.733-7.947C69.467 687.12 121.2 682.32 218.667 694.987c44.133 5.733 59.866 4.533 75.333-6.134 18.533-12.8 35.733-45.2 60.667-114.666 12.933-35.734 18.8-49.867 32.133-76C438 397.653 514.4 328.053 586 316.853c12.133-1.866 35.733-.533 48 2.667 23.467 6.267 43.733 18.667 64.667 39.867 18.266 18.533 25.2 28.533 63.2 92.533 45.466 76.533 62.4 104.133 85.466 138.933 75.334 114.133 135.467 169.6 247.997 228.267 15.47 8 31.6 16.933 36 19.733 47.74 30.533 80.14 72.8 107.74 140 3.33 8 11.86 30.267 18.93 49.337 34.13 91.33 53.6 125.86 92.53 164.8 19.47 19.33 36.4 32.4 59.87 46.13 39.87 23.2 80.4 32.4 126.67 28.53 34.26-2.8 50.93-6.53 156.93-34.13 64.4-16.8 106.53-23.33 148.67-23.33 51.46.13 94.26 14.4 176 58.93 85.2 46.4 129.33 62.8 179.2 66.27 44.4 3.06 84-5.07 136.13-28.14 31.33-13.73 52.67-21.46 77.33-27.73 32.27-8.27 46.27-10 80.67-9.87 29.87 0 40.8 1.2 60.67 6.27l6.33 2.08V0z" fill="#fff"/></svg>
