<svg width="2560" height="1707" fill="none" xmlns="http://www.w3.org/2000/svg"><path fill-rule="evenodd" clip-rule="evenodd" d="M2560 1707V876l-12 4.4c-44.53 14.933-88.27 16.533-170 6.133-50.4-6.533-65.6-4.666-81.47 9.734-4 3.733-10 10.533-13.06 14.933-12 16.933-26.8 50.133-44.8 100.8-14.14 39.47-28.67 71.07-47.34 101.87-46.93 78-109.6 133.2-167.33 147.46-14.53 3.6-38.13 4.94-51.47 2.8-36.93-6-71.2-30-99.06-69.2-4.94-7.06-22.8-36-39.47-64.26-91.47-154.403-127.87-206.937-179.2-258.403C1610.4 827.6 1568.27 798 1493.47 758.8c-50.14-26.267-74.94-47.6-101.34-86.8-17.86-26.667-31.46-55.6-52.13-111.333-23.2-62.267-37.33-94-53.73-120.134-28.94-46-66.8-80.933-113.74-104.8-30.26-15.466-51.86-20.933-86.13-22-28-.933-44.67.667-76.4 6.934-22.533 4.533-32.133 6.933-96 23.866-74.667 19.867-113.467 26.134-160.667 26.134-53.333 0-91.066-12.267-170.666-55.2-81.067-43.867-119.6-59.6-165.334-67.734-15.466-2.666-61.466-2.266-78 .8-26.8 4.934-48 12-90.266 30.667-87.334 38.4-170.534 43.6-239.334 15.2L0 290.4V1707h2560z" fill="#fff"/></svg>
