<svg width="503" height="155" fill="none" xmlns="http://www.w3.org/2000/svg"><path d="M262.709 74.228v-31.89c-25.376.318-45.736 21.276-46.056 46.35h31.857V75.284c6.343.597 10.874-.059 14.199-1.056z" fill="#335993"/><path d="M278.417 75.263v13.424h32.133c-.319-24.77-21.259-46.036-46.332-46.355v31.875c3.022.997 7.854 1.65 14.199 1.056zM248.632 90.199h-31.979c.32 25.073 20.68 46.095 46.056 46.415v-24.275c-7.854-2.011-13.867-10.058-14.077-22.14z" fill="#A2414F"/><path d="M264.218 112.336v24.278c25.073-.318 46.013-21.342 46.332-46.415h-32.152c-.21 12.082-6.326 20.129-14.18 22.137zM226.408 126.512c-.444-.44-.62-.565-.62-.565l-4.237 4.277c-.241.244-.34.394-.213.618.059.108.192.242.376.423 1.272 1.262 2.479 1.131 4.206-.611 2.105-2.125 1.208-3.429.488-4.142zm-3.813 6.125c-.335-.182-.853-.58-1.497-1.219-.427-.424-.713-.756-1.087-1.128a30.44 30.44 0 00-.997-.938l.15-.15a.79.79 0 00.593.222c.298-.017.539-.244 1.252-.963l2.853-2.88c.523-.528.68-.737.72-.944.025-.159-.008-.391-.218-.633l.148-.15s.294.34.904.946c.269.264.787.747 1.39 1.344.754.745 2.997 3.1.485 5.638-1.949 1.966-3.702 1.407-4.696.855zM230.526 139.274l-2.66-1.949c-.533-.39-1.039-.775-1.594-1.137l.127-.171a.79.79 0 00.618.131c.295-.061.5-.322 1.099-1.138l2.396-3.271c.438-.598.563-.828.573-1.041 0-.158-.068-.385-.311-.592l.125-.17c.502.411.91.711 1.443 1.1l2.718 1.992s-.586.784-.87 1.247l-.199-.146c.226-.331.254-.645.15-.883-.118-.277-.294-.435-.884-.868l-.779-.571-1.706 2.33.798.584c.343.252.611.419.889.403.209-.007.436-.117.658-.379l.199.146c-.152.21-.271.328-.709.926-.432.589-.506.712-.656.936l-.199-.146c.161-.261.203-.478.165-.666-.074-.318-.353-.553-.686-.797l-.781-.571-1.538 2.102c-.314.427-.28.54.235.917l.16.118c.523.383.917.641 1.33.578.213-.032.476-.191.694-.468l.199.146c-.358.408-1.004 1.308-1.004 1.308zM244.649 138.646c-.146.087-.48.386-1.068.919l-4.724 4.343-.877-.239.616-6.321c.079-.86.1-1.409.093-1.504-.019-.125-.059-.404-.361-.533l.088-.193c.301.167 1.006.522 1.315.666.319.151 1.13.505 1.449.627l-.088.193c-.256-.121-.443-.142-.563-.106a.328.328 0 00-.206.188c-.059.129-.091.335-.125.684l-.404 3.894c-.08.755-.15 1.101-.15 1.101s.281-.297.811-.818l2.802-2.759c.245-.25.389-.39.455-.529.044-.095.057-.18.019-.265-.064-.171-.286-.277-.432-.358l.091-.19c.364.195.62.341 1.003.521.343.16.656.294 1.014.421l-.091.192c-.294-.15-.559-.001-.667.066zM247.536 141.879c-.03-.787.006-1.107.006-1.107l-1.707 2.236 1.756.54-.055-1.669zm.809 5.435a36.366 36.366 0 00-1.512-.414l.062-.203c.271.082.457.078.571.027a.328.328 0 00.178-.216c.04-.135.042-.344.028-.694l-.064-1.721-2.106-.644-1.054 1.388c-.209.281-.332.439-.379.586-.029.101-.031.188.019.264.085.163.322.235.477.295l-.062.202c-.387-.144-.652-.249-1.056-.374-.362-.11-.692-.199-1.062-.276l.063-.202c.311.107.553-.076.652-.157.131-.108.421-.451.927-1.058l4.085-4.957.868.106.27 6.343c.043.864.098 1.409.117 1.503.038.12.114.391.434.476l-.062.203a30.953 30.953 0 00-1.394-.477zM256.627 148.94l-3.185-.52c-.652-.108-1.279-.222-1.935-.294l.034-.21c.15.026.404.009.612-.16.233-.191.298-.513.463-1.514l.654-4c.119-.732.127-.992.038-1.187-.072-.141-.235-.313-.546-.388l.036-.209c.449.098 1.283.258 1.689.324.407.068 1.272.184 1.729.235l-.036.222c-.493-.057-.766.006-.965.199-.211.206-.26.567-.408 1.476l-.728 4.452c-.085.523-.004.608.624.709l.197.035c.639.103 1.039.145 1.378-.098.175-.127.336-.388.406-.732l.243.038c-.133.526-.3 1.622-.3 1.622zM262.527 145.881c-.529-.017-.775-.119-.775-.119l.007-.235s.131.015.247.019c.343.011.616-.064.845-.222.385-.271.603-.806.626-1.547.051-1.697-.937-1.773-1.536-1.792-.201-.007-.498.019-.498.019l-.158 5.182c-.028.919-.051 1.283.118 1.524.157.229.413.343.908.381l-.006.214a53.85 53.85 0 00-1.897-.106c-.412-.012-1.07-.034-1.578-.002l.006-.212a.793.793 0 00.584-.241c.207-.218.231-.548.26-1.559l.125-4.054c.024-.74-.004-1.001-.116-1.18-.089-.133-.275-.28-.591-.314l.007-.211a29.6 29.6 0 001.411.078c.661.021 1.061.008 1.78.032.235.006.86.038 1.327.158.853.227 1.626.768 1.588 2.007-.047 1.566-1.27 2.222-2.684 2.18zM269.06 144.045c-.332-.714-.423-1.025-.423-1.025l-.709 2.724 1.829-.184-.697-1.515zm2.851 4.698c-.351.036-1.217.146-1.553.203l-.022-.211c.28-.028.451-.104.536-.195.066-.066.091-.163.08-.269-.014-.142-.093-.334-.243-.652l-.724-1.56-2.192.221-.436 1.688c-.083.342-.136.536-.121.688.011.106.042.184.118.237.142.114.39.091.555.085l.021.212c-.413.019-.696.023-1.119.065-.375.036-.714.083-1.086.157l-.021-.212c.33-.021.48-.285.541-.398.079-.15.214-.578.447-1.335l1.846-6.155.84-.237 2.707 5.744c.374.78.637 1.262.692 1.34.08.098.256.318.584.273l.021.212c-.343.01-1.13.065-1.471.099zM276.178 140.502c-.242.061-.483.161-.483.161l.872 3.378s.267-.047.542-.117c.159-.04.315-.093.432-.16.148-.087.865-.418.465-1.969-.415-1.609-1.384-1.407-1.828-1.293zm5.361 6.21c-1.188.304-1.596-.1-2.121-.487a51.311 51.311 0 01-2.246-1.818l-.48.122.4 1.552c.186.719.286.961.444 1.103.123.102.341.192.654.135l.053.205c-.451.093-1.107.238-1.505.341-.4.102-1.066.299-1.506.436l-.053-.205a.792.792 0 00.495-.396c.138-.266.068-.588-.186-1.569l-1.012-3.923c-.186-.719-.286-.961-.444-1.103-.123-.103-.341-.192-.654-.135l-.053-.206c.451-.092.84-.182 1.24-.283.821-.212 1.005-.296 1.735-.485.263-.067.845-.218 1.332-.222 1.445-.008 1.866.967 1.985 1.422.152.595.224 1.719-1.13 2.506 0 0 1.642 1.135 2.516 1.736.72.482 1.221.817 1.706.715l.049.194s-.25.115-1.219.365zM285.666 139.714c-.538-.575-.72-.842-.72-.842l.174 2.81 1.68-.744-1.134-1.224zm4.173 3.576c-.324.144-1.111.519-1.414.677l-.086-.192c.258-.114.395-.241.448-.353a.326.326 0 00-.006-.281c-.057-.13-.193-.289-.434-.543l-1.175-1.259-2.016.893.114 1.74c.025.349.038.55.099.692.043.095.098.161.187.186.169.068.397-.033.552-.089l.087.195c-.388.144-.656.238-1.044.409-.345.152-.652.302-.984.487l-.084-.196c.306-.122.368-.419.389-.545.03-.167.023-.616.008-1.408l-.16-6.423.723-.487 4.362 4.616c.599.625.997 1.001 1.073 1.058.108.068.343.222.642.078l.084.193c-.321.117-1.052.415-1.365.552zM291.2 134.227c-.057.295.099.585.616 1.457l2.063 3.488c.379.639.54.844.733.935.146.064.38.089.666-.053l.108.182c-.406.214-1.037.561-1.392.77-.356.21-.951.592-1.336.845l-.106-.182a.801.801 0 00.364-.519c.057-.294-.099-.583-.616-1.456l-2.063-3.487c-.379-.64-.54-.845-.732-.936-.146-.063-.381-.089-.667.053l-.108-.182a37.29 37.29 0 001.393-.771c.355-.209.952-.59 1.335-.844l.108.182a.799.799 0 00-.366.518zm-.506-1.944l-1.735 2.065-.229-.11.597-2.229.059-.063 1.268.155.04.182zM298.811 137.951c-.434.324-1.101.73-1.64.912l-.115-.149c-.33-.445-.58-.744-.804-1.004l.199-.146c.25.254.527.43.838.434.409.017.813-.209 1.143-.455 1.219-.908.641-1.725.499-1.916-.457-.613-1.022-.544-1.779-.477l-.777.061c-.997.082-1.75-.004-2.419-.902-.352-.472-1.003-1.822.961-3.285.853-.632 1.534-.979 1.534-.979s.125.228.351.53c.394.53.525.668.525.668l-.199.147a1.06 1.06 0 00-.668-.367c-.43-.064-.887.19-1.19.414-.973.726-.673 1.367-.434 1.689.366.491.826.517 1.562.438l.872-.091c1.103-.117 1.869-.055 2.578.902.944 1.265.343 2.55-1.037 3.576zM300.737 126.629c-1.13 1.136-.453 2.626.874 3.949 1.384 1.38 2.942 1.985 4 .927 1.13-1.137.453-2.627-.874-3.95-1.384-1.379-2.944-1.985-4-.926zm5.198 5.282c-1.721 1.727-3.786 1.698-5.465.025-1.735-1.728-1.788-3.978-.059-5.714 1.723-1.727 3.788-1.697 5.467-.025 1.735 1.729 1.788 3.979.057 5.714zM211.972 109.631c.199.491.205.755.205.755l-.218.089s-.038-.125-.082-.233c-.129-.317-.307-.537-.544-.683-.404-.242-.98-.225-1.668.055-1.572.637-1.244 1.572-1.018 2.129.074.186.219.445.219.445l4.803-1.948c.851-.347 1.194-.472 1.346-.724.144-.237.146-.518-.019-.986l.197-.078c.15.434.514 1.393.669 1.775.157.382.404.993.637 1.444l-.197.08a.79.79 0 00-.457-.438c-.281-.102-.593.013-1.53.393l-3.756 1.525c-.688.277-.914.408-1.034.583-.084.136-.145.364-.048.668l-.195.08a30.965 30.965 0 00-.499-1.323c-.248-.612-.419-.974-.69-1.64-.089-.218-.314-.802-.391-1.278-.139-.872.046-1.799 1.191-2.263 1.452-.59 2.548.262 3.079 1.573zM205.771 102.734c.364 1.56 1.988 1.775 3.811 1.35 1.905-.445 3.243-1.446 2.904-2.904-.364-1.56-1.987-1.776-3.811-1.348-1.905.442-3.243 1.445-2.904 2.902zm7.234-1.615c.552 2.376-.567 4.111-2.872 4.65-2.388.556-4.324-.589-4.88-2.977-.553-2.374.564-4.11 2.872-4.648 2.387-.556 4.323.59 4.88 2.975zM204.142 89.166c.234.189.564.183 1.576.127l5.765-.317.036.66-5.708 4.809c-.248.214-.432.306-.432.306l4.684-.258c.741-.04.997-.089 1.166-.215.125-.102.256-.299.263-.616l.211-.013c.002.46-.008.697.013 1.109.023.411.038.67.112 1.175l-.211.01a.801.801 0 00-.29-.562c-.235-.187-.566-.18-1.577-.125l-4.047.221c-.741.04-.998.09-1.168.216-.125.103-.256.299-.26.616l-.214.013c0-.461-.005-.956-.028-1.367a17.56 17.56 0 00-.103-1.022l4.355-3.659c.383-.318.557-.41.557-.41l-3.437.19c-.741.04-.997.09-1.168.217-.123.102-.254.296-.261.616l-.211.01c-.003-.459.006-.742-.018-1.155a9.66 9.66 0 00-.107-1.126l.211-.013a.791.791 0 00.291.563zM205.858 80.967c-.4-.026-.686.114-.836.324-.177.243-.222.476-.292 1.204l-.04.434 5.475.518c.74.07 1.001.06 1.177-.042.298-.16.372-.686.382-.805l.223.022a54.137 54.137 0 00-.218 1.8 50.151 50.151 0 00-.125 1.825l-.212-.02c.008-.094.022-.592-.203-.837-.205-.22-.508-.26-1.517-.357l-5.137-.487-.04.434c-.07.727-.07.965.059 1.236.108.235.362.425.76.476l-.023.246c-.536-.098-1.51-.178-1.51-.178l.582-6.147s.972.104 1.518.108l-.023.246zM205.659 76.432c.178.241.499.319 1.492.522l3.969.817c.725.149.988.165 1.185.087.146-.065.321-.222.408-.53l.207.044a40.711 40.711 0 00-.366 1.547 37.674 37.674 0 00-.271 1.555l-.207-.043a.8.8 0 00-.138-.615c-.179-.242-.498-.32-1.491-.525l-3.971-.815c-.726-.15-.988-.167-1.183-.089-.146.068-.323.225-.41.53l-.208-.043c.117-.444.284-1.143.367-1.547.081-.404.202-1.1.272-1.556l.208.043a.792.792 0 00.137.618zM208.848 69.264c-.385-.111-.694-.036-.887.138-.224.2-.317.417-.541 1.114l-.295.92 2.752.878.301-.942c.129-.404.203-.715.099-.97-.072-.197-.25-.377-.567-.503l.074-.237c.247.08.398.152 1.105.378.694.223.833.255 1.094.326l-.074.236c-.298-.07-.518-.043-.686.053-.277.171-.41.512-.535.904l-.294.92 1.995.64c.707.225.944.264 1.136.202.326-.093.511-.591.547-.703l.213.067c-.163.431-.48 1.307-.605 1.7-.201.628-.265.905-.432 1.545l-.203-.064a.8.8 0 00-.07-.63c-.152-.259-.463-.371-1.428-.68l-3.86-1.235c-.707-.226-.966-.27-1.171-.212-.15.05-.343.186-.464.482l-.2-.065c.23-.606.385-1.088.586-1.718l1.026-3.209s.93.31 1.459.43l-.075.236zM209.714 64.46c.125.274.422.417 1.348.827l3.708 1.637c.677.3.929.373 1.139.337.156-.034.361-.15.512-.431l.194.086c-.207.41-.52 1.058-.685 1.436a35.24 35.24 0 00-.595 1.463l-.195-.085a.792.792 0 00-.004-.633c-.123-.275-.421-.418-1.348-.828l-3.705-1.637c-.68-.3-.932-.373-1.141-.337-.157.034-.362.149-.513.43l-.194-.084c.207-.412.52-1.06.688-1.437.164-.377.429-1.033.594-1.462l.193.085a.793.793 0 00.004.633zM214.924 57.204a.845.845 0 00-.749-.074c-.459.153-.823.65-1.007.964-.53.892-1.145 2.376 1.612 4.006 1.693 1.001 3.211 1.118 4.225-.595.215-.366.453-.883.29-1.348-.064-.215-.218-.417-.494-.578l.127-.213c.282.194.585.4 1.061.682l.173.102c-.118.546-.478 1.318-.791 1.845-.756 1.277-1.748 2.126-2.902 2.293-.747.106-1.583-.074-2.466-.596-1.754-1.036-2.27-2.683-1.97-4.257.123-.625.459-1.288.688-1.673.461-.78.999-1.434 1.052-1.526.182.134.415.272.616.392.264.155.525.296.662.364l-.127.212zM217.066 52.5c.057.296.311.505 1.118 1.12l3.221 2.46c.59.45.817.579 1.028.593.161.003.388-.062.599-.3l.17.13c-.299.35-.754.907-1.003 1.234-.25.329-.661.905-.921 1.285l-.167-.13a.81.81 0 00.144-.616c-.057-.295-.311-.505-1.118-1.119l-3.221-2.46c-.59-.45-.817-.579-1.029-.593-.16-.003-.387.06-.599.3l-.169-.13c.299-.35.754-.907 1.003-1.235.25-.328.661-.903.921-1.284l.169.13a.788.788 0 00-.146.615zM222.596 49.68c-.713-.33-.982-.51-.982-.51l1.211 2.54 1.28-1.318-1.509-.711zm5.207 1.76c-.246.252-.836.894-1.059 1.155l-.152-.147c.197-.203.279-.37.286-.496a.33.33 0 00-.112-.256c-.102-.099-.286-.195-.606-.342l-1.56-.727-1.534 1.58.756 1.572c.154.314.239.496.349.603.076.074.152.114.243.105.184-.004.356-.18.479-.29l.152.147c-.303.28-.516.466-.813.77-.262.27-.493.524-.73.819l-.152-.148c.239-.228.184-.528.158-.653-.038-.165-.209-.58-.52-1.308l-2.55-5.894.49-.724 5.77 2.65c.787.355 1.297.556 1.39.579.125.024.4.078.623-.167l.152.148c-.256.228-.823.778-1.06 1.024zM233.807 37.918c-.044.297.127.58.684 1.427l1.312 1.999c.485.738.775 1.224.878 1.706.326 1.463-.889 2.401-1.687 2.924-1.663 1.093-2.613.871-3.297.389-.51-.37-.916-1.033-1.253-1.545l-1.486-2.265c-.408-.621-.579-.819-.774-.901-.15-.058-.385-.072-.665.083l-.116-.178a38.164 38.164 0 001.356-.832 39.36 39.36 0 001.294-.906l.116.176a.793.793 0 00-.341.535c-.044.296.127.58.684 1.426l1.718 2.62c.582.886 1.251 1.757 2.69.813 1.478-.97.838-2.03.328-2.808l-1.906-2.905c-.409-.62-.58-.818-.775-.9-.15-.058-.385-.073-.665.082l-.116-.177c.398-.232.745-.432 1.09-.659.345-.225.775-.536 1.155-.815l.117.178a.798.798 0 00-.341.533zM242.948 33.637c-.095.285.025.592.429 1.522l2.301 5.293-.605.263-6.491-3.677c-.288-.158-.438-.298-.438-.298l1.868 4.3c.297.68.432.903.61 1.018.14.081.368.136.669.031l.084.195c-.429.162-.656.233-1.032.398-.379.164-.616.268-1.063.513l-.085-.195a.787.787 0 00.426-.468c.095-.285-.026-.592-.43-1.521l-1.615-3.715c-.296-.681-.431-.905-.611-1.02-.138-.08-.366-.135-.667-.03l-.085-.195c.43-.162.894-.337 1.272-.501.161-.07.64-.304.921-.453l4.946 2.809c.43.25.576.378.576.378l-1.372-3.154c-.296-.68-.431-.904-.611-1.019-.138-.08-.366-.136-.667-.03l-.085-.195c.43-.162.699-.253 1.078-.417.378-.165.571-.249 1.018-.494l.084.194a.787.787 0 00-.425.468zM248.085 32.088c-.132.27-.051.59.23 1.564l1.126 3.893c.208.713.313.952.474 1.09.127.098.347.18.661.115l.059.205c-.449.105-1.145.281-1.541.395-.398.115-1.069.334-1.505.485l-.059-.204a.785.785 0 00.483-.41c.131-.27.05-.59-.231-1.564l-1.126-3.893c-.207-.712-.313-.952-.474-1.089-.127-.098-.347-.181-.66-.115l-.06-.205a36.842 36.842 0 001.541-.396 36.155 36.155 0 001.505-.484l.059.204a.787.787 0 00-.482.409zM257.323 30.345c-.07.154-.178.59-.36 1.361l-1.437 6.257-.859.298-3.069-5.559c-.424-.753-.716-1.219-.777-1.293-.087-.093-.275-.3-.599-.234l-.036-.21a29.982 29.982 0 001.462-.194 36.613 36.613 0 001.55-.305l.034.21c-.28.046-.443.134-.523.23a.329.329 0 00-.062.273c.024.14.113.327.284.633l1.871 3.44c.362.669.499.993.499.993s.064-.405.206-1.133l.747-3.862c.061-.345.101-.542.076-.693-.017-.105-.055-.182-.133-.229-.151-.106-.394-.066-.559-.051l-.034-.21c.411-.043.705-.068 1.124-.137.37-.062.707-.13 1.073-.226l.034.21c-.326.042-.462.315-.512.43zM264.836 37.267l-3.297.08c-.659.015-1.296.02-1.954.071l-.006-.212a.794.794 0 00.571-.273c.195-.23.199-.56.174-1.572l-.098-4.052c-.019-.741-.061-1-.182-1.173-.097-.128-.29-.264-.607-.28l-.006-.212c.649.02 1.155.007 1.816-.009l3.367-.082s.012.978.072 1.519l-.248.006c-.021-.4-.192-.668-.419-.791-.262-.148-.499-.165-1.23-.148l-.965.024.07 2.886.989-.024c.425-.01.742-.042.95-.224.161-.134.273-.36.29-.701l.245-.007c.007.259-.012.424.007 1.166.017.73.031.872.05 1.142l-.247.006c-.032-.305-.129-.504-.275-.63-.252-.205-.618-.22-1.031-.21l-.965.023.063 2.603c.013.53.108.598.745.583l.201-.005c.648-.015 1.118-.05 1.406-.353.148-.156.26-.442.262-.795l.248-.006c-.034.543.004 1.65.004 1.65zM270.165 30.388c-.246-.03-.508-.026-.508-.026l-.43 3.46s.267.056.548.091c.163.02.328.03.462.01.169-.026.959-.071 1.155-1.66.206-1.65-.77-1.818-1.227-1.875zm2.705 7.745c-1.215-.151-1.446-.679-1.793-1.232a51.733 51.733 0 01-1.42-2.516l-.491-.06-.199 1.589c-.091.737-.089.999.006 1.188.079.14.248.304.561.366l-.025.21a36.544 36.544 0 00-1.526-.236 39.231 39.231 0 00-1.562-.147l.027-.21a.795.795 0 00.606-.186c.224-.198.277-.523.402-1.53l.499-4.02c.093-.738.089-.999-.006-1.188-.076-.14-.246-.305-.559-.367l.026-.21c.453.08.848.141 1.259.191.84.105 1.043.095 1.792.188.269.033.866.108 1.319.282 1.346.524 1.382 1.585 1.323 2.053-.076.607-.421 1.68-1.971 1.915l1.702 2.538c.493.715.836 1.208 1.323 1.293l-.024.199s-.275.013-1.269-.11zM276.599 39.053c-.522-.142-1.255-.415-1.731-.729l.051-.182c.144-.534.224-.915.292-1.25l.237.065c-.047.353-.013.68.176.927.239.333.666.51 1.064.619 1.467.4 1.753-.56 1.814-.787.203-.74-.201-1.142-.722-1.7l-.527-.57c-.679-.735-1.077-1.38-.783-2.46.155-.57.815-1.915 3.181-1.271 1.022.28 1.715.602 1.715.602s-.102.241-.201.605c-.174.636-.199.825-.199.825l-.24-.066c.055-.29 0-.537-.124-.753-.214-.377-.697-.582-1.061-.68-1.17-.32-1.49.313-1.596.7-.16.591.104.968.618 1.5l.61.63c.772.796 1.196 1.437.883 2.585-.415 1.523-1.797 1.843-3.457 1.39zM286.048 34.47c-.267.136-.398.44-.768 1.383l-1.473 3.775c-.271.692-.332.947-.288 1.153.042.156.165.356.453.493l-.076.199a38.59 38.59 0 00-1.465-.624 39.256 39.256 0 00-1.488-.53l.077-.198a.79.79 0 00.632-.03c.267-.137.4-.44.769-1.384l1.473-3.775c.271-.692.332-.946.287-1.153-.04-.155-.165-.355-.452-.494l.076-.197c.419.19 1.081.473 1.464.623.386.15 1.052.386 1.488.53l-.076.198a.796.796 0 00-.633.031zM291.589 37.188c-.548-.301-.751-.373-.751-.373l-2.899 5.278c-.163.299-.218.471-.034.653.084.087.249.177.478.302 1.568.863 2.694.405 3.875-1.742 1.441-2.624.218-3.63-.669-4.118zm-1.983 6.936c-.37-.083-.978-.322-1.773-.76-.527-.289-.893-.53-1.357-.785-.362-.199-.802-.426-1.215-.627l.102-.186a.795.795 0 00.631.051c.283-.1.452-.383.939-1.271l1.952-3.553c.357-.65.452-.894.433-1.107-.021-.159-.116-.373-.385-.547l.104-.186s.375.247 1.128.661c.33.181.961.501 1.706.91.929.51 3.733 2.158 2.015 5.288-1.334 2.427-3.171 2.371-4.28 2.112zM298.377 44.219c.25-.746.398-1.034.398-1.034l-2.389 1.488 1.452 1.125.539-1.58zm-1.166 5.37a31.96 31.96 0 00-1.268-.922l.132-.168c.222.173.398.234.522.228a.331.331 0 00.244-.14c.087-.112.163-.306.271-.64l.548-1.63-1.74-1.35-1.479.927c-.294.188-.466.294-.559.415-.066.084-.097.163-.078.254.023.181.22.333.343.442l-.132.168c-.311-.27-.518-.462-.855-.722a11.22 11.22 0 00-.895-.633l.131-.168c.252.21.544.124.665.083.161-.053.552-.272 1.242-.662l5.573-3.193.774.407-1.989 6.029c-.265.822-.406 1.353-.421 1.447-.009.127-.032.407.237.6l-.131.167c-.254-.228-.864-.73-1.135-.939zM306.457 48.519c-.426-.457-.597-.587-.597-.587l-4.398 4.112c-.25.233-.355.38-.237.61.055.11.184.247.36.436 1.223 1.308 2.436 1.224 4.226-.45 2.184-2.044 1.338-3.381.646-4.121zm-4.045 5.974c-.326-.194-.829-.61-1.447-1.273-.411-.44-.684-.782-1.046-1.17a26.34 26.34 0 00-.959-.973l.155-.146a.798.798 0 00.584.245c.301-.007.548-.223 1.289-.915l2.961-2.769c.542-.507.707-.71.755-.916.032-.158.007-.392-.194-.64l.154-.145s.282.35.868.98c.258.275.758.775 1.338 1.395.723.775 2.876 3.214.268 5.652-2.023 1.892-3.752 1.267-4.726.675zM315.167 62.26a.844.844 0 00.427-.62c.089-.477-.171-1.035-.357-1.35-.525-.893-1.526-2.15-4.288-.524-1.695.999-2.531 2.271-1.522 3.987.216.366.552.823 1.039.906.22.049.472.01.745-.151l.127.213c-.307.152-.635.317-1.111.6l-.173.1c-.422-.367-.923-1.056-1.234-1.583-.754-1.28-1.016-2.561-.606-3.652.269-.704.832-1.35 1.717-1.871 1.756-1.035 3.45-.692 4.681.333.487.41.906 1.026 1.133 1.412.459.782.772 1.569.827 1.66-.205.093-.438.23-.641.35a11.41 11.41 0 00-.639.403l-.125-.213zM316.314 67.795c.591-.52.864-.692.864-.692l-2.813.082.69 1.703 1.259-1.093zm-3.71 4.053a33.424 33.424 0 00-.631-1.434l.197-.08c.106.261.227.404.339.46.08.044.182.04.279.002.131-.053.294-.183.557-.416l1.295-1.134-.825-2.042-1.744.057c-.349.014-.55.02-.692.077-.1.04-.167.092-.195.18-.072.168.021.397.072.555l-.197.08c-.131-.391-.216-.663-.374-1.055a11.51 11.51 0 00-.456-.998l.197-.08c.113.31.409.382.534.407.165.034.613.044 1.407.054l6.421.047.464.74-4.754 4.208c-.641.577-1.033.964-1.092 1.038-.07.106-.233.336-.097.637l-.197.08a29.495 29.495 0 00-.508-1.383zM320.633 77.587c.385-.112.605-.341.675-.589.082-.29.046-.525-.138-1.232l-.108-.42-5.325 1.38c-.719.188-.961.285-1.092.442-.226.253-.116.772-.087.886l-.215.055a51.753 51.753 0 00-.411-1.767c-.104-.4-.366-1.316-.504-1.756l.206-.053c.023.09.182.56.478.717.267.138.567.072 1.547-.184l4.995-1.294-.11-.423c-.184-.707-.265-.93-.479-1.14-.182-.185-.484-.277-.876-.188l-.061-.24c.535-.09 1.479-.347 1.479-.347l1.549 5.975s-.95.235-1.462.417l-.061-.24zM324.629 84.717l-1.151-2.439.197-.162 1.776 1.475.031.08-.671 1.088-.182-.042zm-2.074-1.397c-.165-1.594-1.748-2.01-3.61-1.82-1.945.2-3.401 1.026-3.249 2.514.165 1.594 1.748 2.013 3.613 1.82 1.945-.2 3.399-1.024 3.246-2.514zm-7.38.688c-.249-2.426 1.08-4.006 3.435-4.25 2.438-.251 4.216 1.13 4.468 3.568.25 2.426-1.081 4.009-3.437 4.25-2.438.251-4.214-1.128-4.466-3.568zM315.376 94.527l.161-3.223c.032-.66.076-1.295.074-1.956l.212.01a.793.793 0 00.228.591c.214.21.544.24 1.556.288l4.048.201c.741.036 1.001.015 1.183-.095.134-.087.286-.269.324-.585l.212.011a40.38 40.38 0 00-.131 1.715 45.887 45.887 0 00-.041 1.744l-.222-.011c0-.496-.093-.76-.309-.935-.226-.189-.59-.195-1.509-.24l-4.508-.224c-.529-.025-.603.065-.635.7l-.01.2c-.032.647-.028 1.05.252 1.359.144.16.421.291.774.319l-.012.248c-.54-.075-1.647-.117-1.647-.117zM321.961 99.618c-.189-.233-.513-.297-1.514-.456l-4.004-.637c-.732-.116-.995-.12-1.187-.033-.144.073-.311.236-.385.548l-.21-.034a38.48 38.48 0 00.296-1.564c.064-.407.153-1.107.201-1.566l.21.034a.795.795 0 00.165.61c.191.234.514.297 1.515.456l4.003.635c.734.117.994.123 1.187.034.144-.074.313-.237.385-.548l.21.034a38.8 38.8 0 00-.297 1.564 40.628 40.628 0 00-.201 1.566l-.209-.034a.781.781 0 00-.165-.61zM318.772 107.969a.84.84 0 00.743-.118c.407-.265.631-.839.731-1.19.281-.999.501-2.59-2.583-3.464-1.894-.538-3.392-.265-3.934 1.653-.116.406-.214.967.061 1.375.119.193.318.349.625.436l-.068.237a16.944 16.944 0 00-1.2-.389l-.193-.056c-.025-.556.127-1.396.295-1.985.404-1.428 1.151-2.503 2.222-2.958.696-.295 1.551-.333 2.54-.053 1.959.557 2.88 2.019 2.99 3.617.04.637-.116 1.363-.239 1.794-.248.873-.601 1.643-.629 1.745a7.071 7.071 0 00-.696-.222 13.576 13.576 0 00-.732-.185l.067-.237zM315.571 112.615c.783.069 1.096.145 1.096.145l-2.002-1.974-.756 1.674 1.662.155zm-5.495.12c.146-.322.483-1.126.601-1.447l.193.086c-.116.258-.135.445-.097.563a.318.318 0 00.192.203c.129.06.335.087.684.117l1.714.152.906-2.008-1.247-1.221c-.251-.244-.393-.386-.533-.449-.097-.042-.182-.056-.265-.015-.171.065-.273.29-.351.435l-.195-.086c.193-.366.329-.615.504-1.001.155-.345.284-.66.407-1.018l.194.087c-.148.296.007.559.074.667.089.144.394.474.934 1.053l4.406 4.673-.214.847-6.328-.525c-.861-.065-1.411-.08-1.505-.072-.127.022-.404.064-.529.371l-.192-.089c.161-.301.506-1.012.647-1.323z" fill="#335993"/><path d="M267.337 61.198h1.215c-.305-.302-.709-.778-.709-1.284 0-1.01 1.215-1.703 1.215-3.019 0-1.315-.912-2.016-.912-3.23 0-1.113.81-1.87.81-2.782 0-.404-.203-1.165-.505-1.466h-1.114c.204.301.506 1.065.506 1.47 0 .911-.808 1.494-.808 2.81 0 1.214 1.011 2.214 1.011 3.226 0 1.011-1.214 1.784-1.214 2.997 0 .506.203.976.505 1.278z" fill="#fff"/><path d="M268.349 63.314h8.398c0 1.51-3.238 2.06-3.238 3.274s2.429.956 2.429 2.768h-6.781c0-1.812 2.43-1.554 2.43-2.768 0-1.214-3.238-1.763-3.238-3.274zm-.506 5.943v1.307h31.116v-1.208h-8.021c2.943-.605 4.831-2.808 4.831-6.019 0-4.857-5.464-9.738-13.356-9.738-1.916 0-3.567.245-4.985.686a2.597 2.597 0 01-.074-.604c0-1.113.809-1.878.809-2.788 0-.406-.201-1.173-.506-1.474h-1.113c.203.301.506 1.065.506 1.47 0 .911-.809 1.494-.809 2.81 0 .326.085.64.199.938-.639.257-1.223.548-1.757.875-.241-.597-.567-1.147-.567-1.833 0-1.114.811-1.878.811-2.788 0-.405-.203-1.17-.508-1.472h-1.111c.201.301.506 1.065.506 1.47 0 .911-.811 1.494-.811 2.81 0 .893.552 1.617.821 2.405a10.347 10.347 0 00-3.147 3.867v-.222c0-.81 1.213-1.823 1.213-2.835 0-1.315-.91-2.023-.91-3.238 0-1.113.81-1.876.81-2.787 0-.404-.203-1.169-.508-1.47h-1.111c.201.301.506 1.065.506 1.47 0 .911-.811 1.494-.811 2.81 0 1.214 1.012 2.214 1.012 3.226 0 1.011-1.213 1.784-1.213 2.997 0 .506.201.976.506 1.278h1.111c1.012-3.02 4.149-6.545 11.029-6.545 7.488 0 12.142 4.772 12.142 8.616 0 3.44-2.227 4.966-4.654 4.966-3.238 0-4.351-2.02-4.351-3.74 0-1.416.709-2.73 2.328-3.337-.811-1.82-3.239-3.875-7.184-3.875-4.351 0-6.577 2.404-7.185 3.915h1.215c.182-.303.648-1.036 1.441-1.577a1.776 1.776 0 00-.025.278c0 .505.203.996.506 1.3h1.215c-.303-.303-.709-.779-.709-1.285 0-.37.165-.671.37-.973.849-.317 1.898-.52 3.172-.52 3.236 0 4.856 1.42 5.565 2.33-1.012.507-2.125 2.178-2.125 3.796 0 2.3 1.394 4.202 4.317 4.807h-11.096c0-2.114-2.733-2.108-2.733-2.715 0-.607 3.643-1.817 3.643-4.233h-11.23c0 2.416 3.642 3.576 3.642 4.183 0 .607-2.732.743-2.732 2.666zM286.36 80.181c0 1.518-1.114 2.53-2.43 2.53.305-.303.607-1.012.607-1.518 0-1.719-2.226-2.529-2.226-4.35 0-1.516 1.012-2.528 2.328-2.528-.305.404-.506 1.111-.506 1.719 0 1.618 2.227 2.529 2.227 4.147zm-.305-6.374c-.201-.201-.707-.404-1.416-.404-1.922 0-3.441 1.517-3.441 3.54 0 2.329 2.226 3.038 2.226 4.454 0 .808-.607 1.415-1.113 1.72.305.303.912.506 1.619.506 2.023 0 3.441-1.518 3.441-3.543 0-2.023-2.125-2.934-2.125-4.349 0-.607.303-1.317.809-1.924zM298.5 82.71c.305-.302.608-1.01.608-1.517 0-1.719-2.227-2.529-2.227-4.35 0-1.516 1.012-2.528 2.328-2.528-.302.404-.506 1.111-.506 1.719 0 1.618 2.227 2.529 2.227 4.147 0 1.518-1.113 2.53-2.43 2.53zm1.317-6.979c0-.607.302-1.317.808-1.923-.201-.202-.707-.405-1.416-.405-1.922 0-3.439 1.517-3.439 3.542 0 2.327 2.224 3.036 2.224 4.452 0 .808-.605 1.415-1.113 1.72.305.303.912.506 1.619.506 2.026 0 3.442-1.518 3.442-3.54 0-2.026-2.125-2.937-2.125-4.352zM293.645 80.181c0 1.518-1.114 2.53-2.43 2.53.305-.303.607-1.012.607-1.518 0-1.719-2.226-2.529-2.226-4.35 0-1.516 1.012-2.528 2.328-2.528-.303.404-.506 1.111-.506 1.719 0 1.618 2.227 2.529 2.227 4.147zm-.305-6.374c-.201-.201-.707-.404-1.416-.404-1.922 0-3.439 1.517-3.439 3.54 0 2.329 2.224 3.038 2.224 4.454 0 .808-.607 1.415-1.113 1.72.305.303.912.506 1.619.506 2.023 0 3.441-1.518 3.441-3.543 0-2.023-2.125-2.934-2.125-4.349 0-.607.303-1.317.809-1.924zM235.433 58.536c0 2.562 2.254 3.587 3.79 3.587 1.64 0 3.179-1.23 3.179-2.972 0-.514-.205-1.026-.411-1.333 1.128.41 2.563.513 3.382.513.923 0 1.539-.41 1.744-.718-3.896-.103-5.432-1.025-7.174-1.025-1.334 0-2.153.922-2.153 1.948 0 1.024.716 1.742 1.638 1.742.822 0 1.232-.512 1.232-1.025 0-.308-.205-.512-.514-.512 0 .307-.203.512-.614.512a.7.7 0 01-.717-.717c0-.514.408-.923 1.128-.923 1.024 0 1.536.615 1.536 1.538 0 1.23-.819 2.05-2.357 2.05-1.537 0-2.563-1.128-2.563-2.665 0-2.256 1.743-2.973 3.178-2.973 2.358 0 3.895.615 8.405.615s6.046-.615 8.404-.615c1.435 0 3.179.717 3.179 2.973 0 1.537-1.027 2.664-2.563 2.664-1.537 0-2.358-.82-2.358-2.05 0-.922.512-1.537 1.539-1.537.715 0 1.126.41 1.126.923 0 .409-.307.717-.718.717-.408 0-.613-.205-.613-.512-.309 0-.513.204-.513.512 0 .513.409 1.025 1.23 1.025.921 0 1.638-.718 1.638-1.742 0-1.026-.819-1.948-2.15-1.948-1.744 0-3.281.922-7.177 1.025.205.308.821.718 1.744.718.819 0 2.254-.103 3.382-.513-.205.308-.411.82-.411 1.333 0 1.742 1.539 2.972 3.177 2.972 1.539 0 3.793-1.025 3.793-3.587 0-2.256-1.435-3.896-4.305-3.896-2.459 0-4.1.718-8.404.718-4.305 0-5.945-.718-8.405-.718-2.869 0-4.304 1.64-4.304 3.896zm2.869-4.715c0 .204.102.307.204.307h19.27c.103 0 .205-.103.205-.307 0-.308-.205-.615-.819-.615h-18.04c-.616 0-.82.307-.82.615zm1.435 9.635c0 .614.513 1.126.923 1.332-.104.102-.205.307-.205.717 0 1.128 1.126 1.333 1.435 1.333-.205.205-.309.512-.309.82 0 .512.514 1.127 1.333 1.127.616 0 1.024-.41.923-.922-.205.102-.411.205-.718.205-.41 0-.821-.205-.821-.615 0-.308.104-.513.206-.615.41-.103.615-.205.615-.718-.306.102-.615.102-.922.102-.512 0-1.025-.307-1.025-.819 0-.206.102-.41.206-.513.512.205 1.331.102 1.741-.205.411 2.358 2.254 6.048 5.023 5.945 2.768.103 4.611-3.587 5.022-5.945.411.307 1.23.41 1.744.205a.79.79 0 01.203.513c0 .512-.512.82-1.024.82-.307 0-.616 0-.923-.103 0 .513.205.615.616.718.101.102.205.307.205.615 0 .41-.41.615-.821.615-.307 0-.512-.103-.717-.205-.102.512.306.922.922.922.819 0 1.334-.615 1.334-1.127 0-.308-.104-.615-.309-.82.309 0 1.435-.205 1.435-1.333 0-.41-.102-.615-.204-.717.409-.206.921-.718.921-1.332 0-.513-.307-1.026-1.126-1.026.205.205.307.41.307.718 0 .615-.512 1.025-1.333 1.025-.307 0-.923-.103-1.126-.307.101-.513-.309-.82-.718-1.026.102.615 0 1.026-.103 1.333-.307.922-1.641 1.127-1.641 1.23 0 .308.309.41.512.41.411 0 .718-.205 1.027-.616-.411 1.743-1.846 4.613-4.203 4.613-2.358 0-3.793-2.87-4.204-4.613.309.411.616.615 1.027.615.205 0 .512-.101.512-.409 0-.103-1.333-.308-1.64-1.23a2.589 2.589 0 01-.102-1.333c-.41.205-.821.513-.719 1.026-.203.204-.819.307-1.126.307-.821 0-1.334-.41-1.334-1.025 0-.308.104-.513.307-.718-.819 0-1.126.513-1.126 1.026zm1.947-1.64c-.512.614-.103 1.127.513 1.127s1.435-.308 2.256-1.743c.512-.718.717-1.23 1.638-1.23 1.333 0 1.232-1.333 2.051-1.333.821 0 .717 1.333 2.051 1.333.922 0 1.125.513 1.64 1.23.819 1.435 1.638 1.743 2.254 1.743.616 0 1.024-.513.512-1.128-.102.205-.307.41-.614.41-.821 0-1.128-.717-1.744-1.64.309.103.616.513 1.027.513.512 0 .613-.41.512-.717-1.64 0-1.23-1.128-3.281-1.128-.922 0-1.229-1.332-2.357-1.332-1.128 0-1.435 1.332-2.358 1.332-2.049 0-1.64 1.128-3.28 1.128-.102.307 0 .717.512.717.41 0 .719-.41 1.026-.513-.616.923-.923 1.64-1.744 1.64-.307 0-.512-.205-.614-.41zm2.87.512c0 .307.206.41.307.41.206 0 .309-.308.616-.41 0 .41.205.615.614.615.309 0 .616-.205.616-.513.205.103.41.41.512.41.104 0 .205-.205.205-.615-.101-.205-.717-.717-1.538-.717-.819 0-1.332.205-1.332.82zm2.051 4.715l.102.512c.101-.102.307-.102.512-.102.307 0 .411.102.923.102s.616-.102.922-.102c.206 0 .411 0 .513.102l.103-.512c-.103-.103-.41-.206-.717-.206-.309 0-.514.103-.821.103-.307 0-.512-.102-.819-.102-.309 0-.616.102-.718.205zm.307-1.128c.614 0 .718.205 1.23.205s.616-.205 1.229-.205c0-.204-.101-.41-.205-.615-.819 0-.819.308-1.024.308-.206 0-.206-.308-1.025-.308-.103.205-.205.41-.205.615zm.512 2.46c.102.205.307.41.718.41.41 0 .616-.205.717-.41 0-.102 0-.307-.101-.41-.104.103-.206.205-.616.205-.411 0-.512-.102-.616-.205-.102.103-.102.308-.102.41zm1.435-6.15c0 .41.104.615.205.615.102 0 .307-.307.513-.41 0 .308.307.513.616.513.408 0 .613-.205.613-.615.309.102.411.41.616.41.102 0 .307-.103.307-.41 0-.615-.512-.82-1.331-.82-.821 0-1.435.512-1.539.717zM242.247 72.26v-1.324c-3.052 0-5.698.198-7.869 1.522-2.307-1.324-4.682-1.522-7.803-1.522v1.323c-.61-.199-1.425-.331-2.373-.331v13.501c5.088 0 7.53.729 9.293 1.721h1.831c1.697-.992 4.14-1.72 9.228-1.72V71.927c-.883 0-1.696.132-2.307.332zm-14.654-.53c2.239 0 4.952.33 6.309 1.521v10.39c-1.966-.859-4.07-1.257-6.309-1.257V71.73zm13.636 0v10.654c-2.239 0-4.409.398-6.309 1.257V73.25c1.289-1.19 4.07-1.522 6.309-1.522zm2.307 12.508c-4.138 0-6.716.728-8.413 1.92h-1.424c-1.763-1.192-4.274-1.92-8.481-1.92V72.92c.205 0 .95.132 1.357.33v9.995c3.121 0 5.293.395 7.191 1.52h1.221c1.969-1.125 4.208-1.52 7.26-1.52V73.25c.406-.198 1.085-.33 1.289-.33v11.317zM251.382 117.087c-3.922 0-3.996 3.553-7.695 3.553-3.552 0-3.996-3.627-7.696-3.627-2.006 0-3.126.963-4.158 1.889.256.284.598.657.848.909.823-.766 1.717-1.538 3.236-1.538 3.181 0 3.774 3.55 7.77 3.55 4.292 0 4.292-3.55 7.695-3.55 3.405 0 3.701 3.698 7.697 3.55v-1.183c-3.699 0-3.699-3.553-7.697-3.553z" fill="#fff"/><path d="M251.381 121.872c-3.921 0-3.995 3.552-7.695 3.552-3.551 0-3.996-3.626-7.695-3.626-.404 0-.798.058-1.135.123.371.328 1.277 1.141 1.315 1.142 2.986.087 3.519 3.545 7.515 3.545 4.292 0 4.292-3.553 7.695-3.553 3.406 0 3.702 3.702 7.698 3.553v-1.184c-3.7 0-3.7-3.552-7.698-3.552z" fill="#fff"/><path d="M251.445 126.654c-2.682 0-3.564 1.661-5.037 2.711.349.235.774.36 1.166.572 1.124-.983 1.964-2.098 3.871-2.098 3.405 0 3.701 3.7 7.697 3.552v-1.183c-3.701 0-3.701-3.554-7.697-3.554zM229.289 115.948l.734.866c2.328-.644 3.156-3.135 5.894-3.135 3.181 0 3.774 3.552 7.77 3.552 4.292 0 4.292-3.552 7.695-3.552 3.405 0 3.701 3.699 7.697 3.552v-1.184c-3.699 0-3.699-3.553-7.697-3.553-3.922 0-3.996 3.553-7.695 3.553-3.552 0-3.996-3.627-7.696-3.627-3.405 0-4.334 2.713-6.702 3.528z" fill="#fff"/><path d="M235.299 95.495c.415 0 1.247 1.212 1.247 2.423 0 1.413-.728 2.423-1.247 2.423-.518 0-1.246-1.01-1.246-2.423 0-1.21.831-2.423 1.246-2.423zm-3.532 3.735c1.35 0 2.804 1.617 2.804 2.525 0 .404-.311.605-.83.605-1.456 0-2.7-1.513-2.7-2.523 0-.404.207-.607.726-.607zm6.961 0c.415 0 .622.203.622.607 0 1.01-1.143 2.523-2.701 2.523-.414 0-.624-.201-.624-.605 0-.908 1.352-2.525 2.703-2.525zm-7.272 3.737c1.765 0 3.115 1.514 3.115 2.424 0 .402-.311.605-.726.605-1.56 0-2.91-1.312-2.91-2.525 0-.405.21-.504.521-.504zm5.193 3.029c-.518 0-.624-.303-.624-.605 0-.91 1.039-2.325 2.493-2.325.521 0 .728.102.728.507 0 1.211-1.039 2.423-2.597 2.423zm-1.35 2.525c-.207-.91-.624-1.314-1.143-1.717.625 0 1.039-.202 1.143-.909.104.707.519.909 1.143.909-.521.403-.935.807-1.143 1.717zm-1.558 1.211c-1.456 0-2.7-1.414-2.7-2.624 0-.405.311-.506.622-.506 1.558 0 2.908 1.312 2.908 2.423 0 .404-.311.707-.83.707zm3.012 0c-.518 0-.728-.303-.728-.707 0-.908 1.039-2.423 2.493-2.423.521 0 .936.101.936.506 0 1.21-1.143 2.624-2.701 2.624zm-1.454-4.948c-.207-.807-.624-1.313-1.246-1.718.622 0 1.142-.099 1.246-1.009.104.91.622 1.009 1.247 1.009-.625.405-1.039.911-1.247 1.718zm-.624 8.101h1.246v-2.647c.104.2.521.302.936.302 1.661 0 3.532-1.716 3.532-3.636l3.232-3.344-.622-.499-3.128 3.036c-.21-.202-.521-.304-1.04-.304 1.04-.704 1.454-1.514 1.454-2.625l3.336-3.242-.622-.5-3.128 3.035c-.21-.2-.521-.302-.936-.302.622-.303 1.35-1.414 1.454-2.525l3.232-3.344-.622-.599-3.025 3.137c-.207-.305-.52-.506-1.039-.506-.728 0-1.35.302-1.871.707.21-.303.313-.707.313-1.312 0-1.213-.728-2.525-1.559-2.93l-.104-3.634h-.83l-.103 3.635c-.832.404-1.56 1.716-1.56 2.929 0 .605.104.907.207 1.21-.518-.303-1.143-.605-1.869-.605-.518 0-.728.2-.935.404l-3.024-3.035-.623.599 3.128 3.243c0 1.011.415 1.818 1.143 2.524-.313 0-.624.102-.831.303l-2.921-2.933-.624.499 3.13 3.242c0 .809.415 1.717 1.35 2.525-.417 0-.728.202-.832.303l-3.024-2.935-.624.499 3.233 3.244c0 1.918 1.869 3.736 3.533 3.736.415 0 .829-.102 1.037-.302v2.647zM274.555 125.712c-.17.333-.46.581-.815.697a1.386 1.386 0 01-1.071-.082 1.395 1.395 0 01-.614-1.885 1.38 1.38 0 01.815-.697 1.39 1.39 0 011.069.082c.334.169.582.459.698.815.117.355.087.736-.082 1.07zm-.265-2.578a2.173 2.173 0 00-2.927.958 2.16 2.16 0 00-.129 1.661c.18.552.565 1.001 1.084 1.265a2.168 2.168 0 001.661.129 2.174 2.174 0 001.395-2.746 2.167 2.167 0 00-1.084-1.267zM285.418 121.821a1.127 1.127 0 01-1.518.495 1.131 1.131 0 01.161-2.081c.053-.016.106-.029.161-.037a1.12 1.12 0 011.262.762 1.13 1.13 0 01-.066.861zm-.144-2.21a1.904 1.904 0 10-1.724 3.394 1.904 1.904 0 001.724-3.394z" fill="#fff"/><path d="M289.418 122.9c-1.009.203-1.64-.376-1.665-.402l-.362-.351-1.793 1.993.335.324c.008.009.836.828.666 1.639l-1.083.353c-.616-.555-.43-1.704-.428-1.714l.081-.462-2.134-.447-.484-.097-.091.487c-.009.038-.176.88-1.109 1.31l-.737-.692c.116-.586.887-1.084 1.204-1.238l.373-.178-.709-2.377-.413.057c-.011.003-1.094.136-1.733-.281l.213-1.016c1.027-.152 1.586.383 1.607.407l.368.379 1.748-2.007-.302-.32c-.009-.01-.815-.871-.631-1.653l1.02-.333c.607.524.466 1.694.466 1.705l-.06.44 2.085.47.502.108.082-.508c.007-.036.142-.8 1.058-1.28l.773.691c-.229.596-.944 1.095-1.232 1.251l-.366.2.827 2.336.409-.076c.315-.061 1.257-.118 1.702.288l-.187.994zm-11.541 1.141l-.425.015-.262 2.668.484.047c.392.039 1.196.233 1.484.614l-.497.957c-.699.065-1.41-.748-1.418-.756l-.32-.383-2.019 1.799.311.36c.008.008.646.77.552 1.504l-1.003.329c-.512-.54-.442-1.531-.442-1.541l.04-.477-2.692-.26-.034.499c0 .011-.089 1.087-.698 1.446l-.965-.479c.008-.473.541-1.108.836-1.37l.364-.324-1.801-2.015-.356.266c-.387.293-1.067.639-1.481.6l-.339-1.04c.362-.37 1.234-.406 1.543-.387l.472.034.249-2.686-.476-.051c-.313-.031-1.181-.217-1.483-.654l.495-.954c.54-.021 1.194.561 1.399.791l.322.364 2.042-1.824-.318-.362c-.198-.226-.683-.918-.596-1.422l1.098-.36c.366.355.385 1.202.358 1.5l-.045.481 2.726.269.047-.485c.029-.307.209-1.164.66-1.464l.965.48c.011.529-.578 1.192-.81 1.401l-.358.322 1.771 2.006.36-.275c.246-.186.993-.639 1.516-.537l.292.893c-.309.287-1.063.444-1.548.461zm2.519-.608l-.453-1.392c.318.051.614.06.838.055l.252.842a4.243 4.243 0 00-.637.495zm10.129-1.932c-.582-.868-1.754-.922-2.383-.884l-.294-.828c.485-.336 1.304-1.035 1.439-1.977l.038-.258-1.644-1.473-.28.113c-1.083.429-1.564 1.165-1.773 1.659l-.819-.185c-.004-.641-.157-1.797-1.139-2.345l-.184-.103-1.877.612-.089.192c-.47 1.022.091 2.046.465 2.566l-.552.632c-.459-.275-1.28-.589-2.413-.294l-.29.076-.457 2.158.18.185c.142.143.301.26.47.355-.59.015-1.156.286-1.517.499l-.578-.654c.412-.475 1.011-1.36.719-2.256l-.063-.192-1.748-.87-.189.062c-.903.296-1.263 1.282-1.403 1.892l-.866-.087c-.023-.62-.194-1.646-1.037-2.075l-.179-.09-1.937.633-.091.178c-.427.844.038 1.773.387 2.287l-.649.58c-.472-.41-1.344-.992-2.248-.698l-.188.061-.902 1.734.063.192c.293.896 1.298 1.257 1.914 1.397l-.079.85c-.628.034-1.676.219-2.103 1.059l-.091.18.616 1.886.177.091c.771.389 1.759-.072 2.295-.396l.596.668c-.421.477-1.03 1.355-.747 2.225l.064.193 1.748.869.188-.061c.955-.313 1.317-1.283 1.452-1.885l.832.082c.04.577.235 1.536 1.022 2.083l.199.134 1.975-.643.078-.226c.315-.906-.095-1.795-.404-2.285l.624-.558c.464.407 1.329.978 2.284.665l.188-.061.9-1.734-.062-.192c-.283-.87-1.295-1.219-1.917-1.354l.091-.911c.366-.049.897-.158 1.346-.404a1.767 1.767 0 00-.053.487l.008.197 1.48 1.392.273-.089c1.143-.372 1.653-1.168 1.871-1.686l.829.174c-.015.643.11 1.779 1.092 2.366l.189.111 1.972-.643.087-.203c.447-1.052-.123-2.042-.514-2.552l.567-.631c.48.29 1.363.632 2.506.258l.273-.089.372-1.998-.11-.163z" fill="#fff"/><path d="M287.325 94.385v4.056l7.344-4.284v4.284l6.732-4.666-.842-1.148h3.136v3.365l-1.299-1.299-9.029 6.656v-4.515l-8.108 5.05v-3.52l-7.498 4.361v1.453l6.504-3.824v3.596l8.031-5.05v4.514l10.1-7.422 2.294 2.449v-6.809h-6.273l1.454 1.835-4.207 2.984v-4.284l-7.346 4.284v-4.055l-8.492 4.591v1.454l7.499-4.056zm11.399 7.423l-7.498 5.662v-5.05l-7.956 5.05v-3.672l-7.803 4.743v1.453l6.808-4.131v3.596l7.956-5.049v5.049l10.099-7.422-.918-1.148h3.136v3.596l-1.223-1.302-12.548 9.793v-5.202l-7.649 4.898v-3.213l-7.039 4.435v1.455l6.044-3.902v3.214l7.651-4.898v5.434l13.541-10.712 2.294 2.449v-7.04h-6.425l1.53 1.914z" fill="#fff"/><path d="M262.709 15.584v2.417h-2.72v1.51h2.72v4.834h1.509v-4.833h2.719v-1.51h-2.719v-2.418h-1.509z" fill="#335993"/><path d="M263.462 75.251c2.865.96 6.495 1.599 13.746 1.118v13.106c0 11.667-5.788 19.978-13.746 21.735-7.956-1.757-13.744-10.068-13.744-21.735V76.369c7.251.48 10.88-.159 13.744-1.118z" fill="#A18160"/><path d="M272.197 24.748l-.32 1.278C303.23 30.18 327.42 57.35 327.42 89.474c0 35.161-28.647 63.928-63.818 63.928s-63.818-28.767-63.818-63.928c0-32.283 24.173-59.293 55.526-63.448l-.318-1.278c-31.828 3.995-56.639 31.804-56.639 64.726 0 36.12 29.283 65.526 65.249 65.526 35.966 0 65.249-29.406 65.249-65.526 0-32.922-24.825-60.73-56.654-64.726zM264.165 11.22l.808-10.382C264.328.67 263.682 0 263.682 0s-.647.67-1.293.838l.809 10.383h.967zm-1.776.168l-1.775-9.378s-.97.67-1.131.838l1.937 8.708.969-.168zm-1.936.335l-2.424-8.038-1.775.67 3.39 7.871.809-.503zm-1.454 1.005l-4.682-8.038-2.26.167 6.135 8.374.807-.503zm-1.615 1.173l-8.072-8.709h-1.776v2.01l9.041 7.536.807-.837zm-1.291 1.507l-9.041-6.03s-.163 1.676-.324 2.01l8.88 4.858.485-.838zm-.969 1.675l-9.203-3.518-.808 1.675 9.689 2.847.322-1.004zm-.485 1.842l-10.656-2.01c-.322.335-1.291 1.675-1.291 1.675l11.786 1.172.161-.837zm-.161 2.68V20.6l-13.077-.168-1.13.838s.806.836 1.13 1.339l13.077-1.005zm-12.271 2.51l1.291 1.341 11.141-1.675-.161-1.004-12.271 1.339zm22.766-12.727l.968.168 1.938-8.708-1.13-.838-1.776 9.378zm1.937.335l.808.503 3.391-7.871-1.776-.67-2.423 8.038zm1.454 1.005l.806.503 6.136-8.374-2.261-.167-4.681 8.038zm1.615 1.173l.806.837 9.041-7.536v-2.01h-1.775l-8.072 8.709zm1.291 1.507l.484.838 8.881-4.858c-.163-.334-.324-2.01-.324-2.01l-9.041 6.03zm.969 1.675l.322 1.005 9.689-2.848-.809-1.675-9.202 3.518zm.485 1.842l.161.837 11.786-1.172s-.969-1.34-1.291-1.675l-10.656 2.01zm.161 2.68l13.077 1.004c.324-.503 1.13-1.34 1.13-1.34l-1.13-.837-13.077.168v1.004zm12.271 2.51l-12.271-1.338-.161 1.004 11.14 1.675 1.292-1.34z" fill="#335993"/><path d="M265.858 101.261c-.489.345-1.52.885-2.256.982-.737-.097-1.768-.637-2.257-.982V88.732h-6.711V84.13h6.711v-6.064h4.513v6.064h6.711v4.603h-6.711v12.529zm-3.482-.783c.343.294.588.44 1.226.539.637-.099.882-.245 1.227-.539V87.701h6.612V85.11h-6.612v-5.916h-2.453v5.916h-6.614V87.7h6.614v12.777zM263.359 107.051v.569h-2.165v-2.718h2.089v.563h-1.469v.578h1.268v.493h-1.268v.515h1.545zM266.18 105.506h-.899v2.114h-.616v-2.114h-.899v-.604h2.414v.604zM270.066 104.486l.413.427-1.452 1.395-1.884-1.96.447-.429 1.471 1.532 1.005-.965zM271.049 102.147a30.402 30.402 0 00-1.02-.204s.176.316.534.896l.486-.692zm1.294.287a59.67 59.67 0 01-.741-.171l-.741 1.049c.121.198.26.411.411.642l-.371.527c-1.011-1.606-1.53-2.55-1.53-2.55l.425-.601s1.063.169 2.915.584l-.368.52zM273.109 99.74c.112-.25.091-.4-.094-.482-.169-.076-.323-.006-.44.256l-.355.794.527.237.362-.805zm-1.857.136l.53.237.285-.635c.102-.228.062-.357-.114-.436-.178-.08-.317-.016-.425.222l-.276.612zm2.062-1.161c.493.22.569.64.311 1.214l-.624 1.392-2.483-1.113.563-1.254c.252-.56.622-.687 1.029-.504.283.126.349.349.345.485.144-.223.446-.407.859-.22zM274.072 96.77c.116-.492-.055-.894-.593-1.02-.54-.126-.87.158-.986.649-.115.491.055.893.594 1.02.54.125.87-.159.985-.65zm-2.138-.503c.205-.872.809-1.309 1.683-1.106.867.205 1.219.865 1.015 1.74-.205.867-.814 1.31-1.682 1.107-.874-.206-1.219-.872-1.016-1.74zM273.701 93.993l.045-.652c.023-.368-.081-.526-.358-.544-.275-.019-.406.123-.432.49l-.044.653.789.053zm1.446-1.102c-.284.112-.593.261-.832.382l-.006.081-.045.677.802.056-.04.602-2.711-.184.087-1.28c.046-.705.41-1.084 1.028-1.041.385.027.652.206.788.507.241-.13.611-.317.975-.488l-.046.688zM254.607 93.83l-.607.053.114 1.289-.506.046-.116-1.289-1.033.091-.055-.615 2.709-.244.19 2.134-.561.048-.135-1.513zM255.564 96.415l-2.659.567-.129-.6 2.659-.565.129.598zM254.163 99.074c.201.53.527.715 1.008.533.486-.184.605-.535.404-1.069l-.197-.516-1.412.534.197.518zm1.96-.796c.37.98.095 1.606-.728 1.918-.825.312-1.446.025-1.816-.955l-.391-1.037 2.543-.961.392 1.035zM256.368 103.334l-.483.303-1.156-1.829 2.299-1.452 1.115 1.765-.476.303-.785-1.242-.489.308.677 1.072-.417.264-.677-1.073-.434.276.826 1.305zM258.788 104.366s.089-.015.184-.096c.123-.113.171-.293-.117-.61-.275-.307-.465-.339-.635-.186-.429.386 1.088 1.371.32 2.063-.385.347-.834.262-1.371-.336-.584-.648-.561-1.109-.187-1.446 0 0 .185.091.464.362-.233.21-.199.436.095.762.294.326.453.351.603.216.411-.371-1.107-1.354-.292-2.089.364-.329.824-.269 1.363.33.618.686.517 1.06.246 1.304-.148.135-.286.156-.286.156l-.387-.43zM346.21 53.255c-.861 0-1.264-.153-1.264-.153v-.383s.212.02.403.02c.554 0 .994-.135 1.358-.402.612-.46.938-1.339.938-2.544 0-2.755-1.606-2.832-2.582-2.832-.326 0-.804.058-.804.058v8.417c0 1.492-.019 2.085.268 2.468.267.363.688.535 1.492.573v.345a85.35 85.35 0 00-3.081-.077c-.669 0-1.74 0-2.563.077v-.345c.25 0 .652-.095.938-.42.325-.363.345-.9.345-2.544v-6.581c0-1.205-.058-1.626-.25-1.913-.153-.21-.457-.44-.976-.479v-.344c.747.04 1.628.058 2.296.058 1.071 0 1.723-.039 2.889-.039.383 0 1.397.02 2.161.192 1.397.325 2.68 1.167 2.68 3.176 0 2.544-1.952 3.672-4.248 3.672zM358.492 46.942c-2.602 0-3.539 2.486-3.539 5.528 0 3.175 1.09 5.662 3.519 5.662 2.602 0 3.539-2.487 3.539-5.529 0-3.175-1.09-5.661-3.519-5.661zm-.115 12.032c-3.962 0-6.294-2.411-6.294-6.256 0-3.978 2.525-6.619 6.504-6.619 3.96 0 6.294 2.41 6.294 6.256 0 3.978-2.525 6.619-6.504 6.619zM378.634 46.959c-.326.364-.345.9-.345 2.544v9.374h-1.071l-7.287-9.68a3.82 3.82 0 01-.459-.726v7.613c0 1.205.057 1.626.247 1.913.153.21.46.44.976.478v.345c-.745-.039-1.128-.077-1.797-.077-.671 0-1.092 0-1.913.077v-.345c.247 0 .65-.095.935-.42.326-.364.345-.9.345-2.544V48.93c0-1.206-.057-1.626-.247-1.913-.155-.211-.46-.44-.976-.479v-.344c.745.039 1.549.076 2.218.076.288 0 1.147-.037 1.666-.076l5.547 7.384c.478.65.611.937.611.937V48.93c0-1.206-.057-1.626-.247-1.913-.155-.211-.459-.44-.976-.479v-.344c.745.039 1.204.076 1.873.076.671 0 1.014 0 1.837-.076v.344c-.247 0-.65.096-.937.421zM390.263 48.721c-.019-.65-.286-1.09-.65-1.3-.421-.249-.804-.287-1.989-.287h-.707v8.933c0 1.205.057 1.627.247 1.894.307.46 1.167.498 1.359.498v.363a78.332 78.332 0 00-2.946-.077c-.669 0-2.22.038-2.965.077v-.345c.152 0 .957-.057 1.321-.458.323-.364.343-.861.343-2.506v-8.38h-.707c-1.188 0-1.569.039-1.99.288-.364.21-.63.65-.65 1.3h-.402c.077-.88.057-2.467.057-2.467h10.024s-.019 1.588.057 2.467h-.402zM396.079 46.961c-.326.364-.345.9-.345 2.545v6.58c0 1.205.057 1.627.249 1.914.153.21.46.44.976.477v.345a60.656 60.656 0 00-2.582-.077c-.671 0-1.818.038-2.565.077v-.345c.25 0 .652-.095.938-.42.325-.363.345-.9.345-2.544v-6.581c0-1.205-.058-1.626-.25-1.913-.153-.21-.457-.44-.976-.479v-.344c.747.04 1.913.077 2.584.077.669 0 1.816-.038 2.563-.077v.344c-.249 0-.649.096-.937.421zM407.249 48.721c-.019-.65-.285-1.09-.649-1.3-.422-.249-.805-.287-1.99-.287h-1.568v4.687h1.606c.69 0 1.207-.038 1.549-.325.269-.211.46-.575.498-1.129h.402c0 .42-.038.688-.038 1.894 0 1.186.019 1.415.038 1.855h-.402c-.038-.497-.191-.822-.421-1.033-.402-.344-.995-.383-1.664-.383h-1.568v3.406c0 1.205.057 1.588.247 1.855.307.46 1.169.498 1.359.498v.363a78.333 78.333 0 00-2.927-.096c-1.071 0-1.53.038-2.601.096v-.345c.248 0 .65-.095.938-.42.324-.363.343-.9.343-2.544v-6.581c0-1.205-.058-1.626-.248-1.913-.152-.21-.459-.44-.976-.479v-.344c1.052.058 1.875.058 2.946.058h5.471s-.019 1.588.057 2.467h-.402zM413.639 46.961c-.326.364-.345.9-.345 2.545v6.58c0 1.205.059 1.627.249 1.914.153.21.46.44.976.477v.345a60.656 60.656 0 00-2.582-.077c-.671 0-1.818.038-2.563.077v-.345c.248 0 .65-.095.935-.42.326-.363.345-.9.345-2.544v-6.581c0-1.205-.057-1.626-.247-1.913-.155-.21-.459-.44-.976-.479v-.344c.745.04 1.911.077 2.582.077.669 0 1.816-.038 2.563-.077v.344c-.25 0-.65.096-.937.421zM426.514 48.72c0-.496-.212-.86-.517-1.109-.592-.516-1.587-.612-2.182-.612-1.682 0-4.264.363-4.264 5.567 0 3.194 1.089 5.413 4.321 5.413.69 0 1.609-.095 2.125-.708.248-.267.402-.65.402-1.166h.4a27.13 27.13 0 00-.076 2.047v.325c-.859.287-2.237.42-3.232.42-2.41 0-4.419-.688-5.606-2.161-.764-.956-1.204-2.276-1.204-3.94 0-3.31 1.875-5.395 4.323-6.276.976-.344 2.18-.42 2.908-.42 1.473 0 2.83.21 3.004.21-.038.364-.038.804-.038 1.186 0 .498.019.976.038 1.224h-.402zM433.283 46.961c-.324.364-.343.9-.343 2.545v6.58c0 1.205.057 1.627.248 1.914.152.21.459.44.976.477v.345a60.753 60.753 0 00-2.582-.077c-.669 0-1.818.038-2.563.077v-.345c.247 0 .649-.095.935-.42.326-.363.345-.9.345-2.544v-6.581c0-1.205-.057-1.626-.248-1.913-.152-.21-.459-.44-.975-.479v-.344c.745.04 1.913.077 2.582.077.669 0 1.818-.038 2.563-.077v.344c-.248 0-.65.096-.938.421zM441.241 50.692c-.421-1.205-.516-1.722-.516-1.722l-1.587 4.285h2.984l-.881-2.563zm3.846 8.053c-.574 0-1.99.038-2.544.077v-.345c.459 0 .745-.095.899-.23.115-.094.172-.247.172-.42 0-.23-.095-.555-.288-1.09l-.916-2.64h-3.579l-.976 2.66c-.19.534-.305.84-.305 1.09 0 .172.038.306.153.4.209.212.611.212.88.23v.345c-.671-.039-1.13-.077-1.818-.077-.612 0-1.166.02-1.778.077v-.345c.536.02.821-.382.936-.554.154-.23.44-.9.937-2.085l3.979-9.642 1.397-.248 3.443 9.718c.479 1.32.824 2.142.9 2.276.114.172.364.554.899.535v.345a48.946 48.946 0 00-2.391-.077zM351.931 69.11c-.326.363-.345.899-.345 2.544v3.882c0 1.436-.038 2.354-.326 3.1-.859 2.276-3.346 2.469-4.898 2.469-3.231 0-4.321-1.149-4.819-2.41-.364-.958-.326-2.221-.326-3.215v-4.4c0-1.205-.057-1.626-.249-1.913-.153-.21-.457-.44-.974-.478v-.344c.745.038 1.911.076 2.582.076.669 0 1.818-.038 2.563-.076v.344c-.25 0-.65.096-.937.42-.326.364-.345.9-.345 2.545v5.089c0 1.72.135 3.5 2.927 3.5 2.869 0 2.946-2.008 2.946-3.52V71.08c0-1.205-.057-1.626-.248-1.913-.154-.21-.459-.44-.976-.478v-.344c.745.038 1.397.076 2.066.076.669 0 1.53-.038 2.296-.076v.344c-.249 0-.652.096-.937.42zM366.257 69.11c-.324.364-.343.9-.343 2.545v9.372h-1.073l-7.287-9.679a3.784 3.784 0 01-.459-.727v7.615c0 1.204.057 1.625.247 1.913.155.21.46.44.976.478v.343c-.745-.038-1.128-.076-1.797-.076-.671 0-1.092 0-1.913.076v-.343c.248 0 .65-.095.937-.421.324-.364.343-.9.343-2.544V71.08c0-1.205-.057-1.626-.247-1.913-.153-.21-.46-.44-.976-.479v-.343c.745.037 1.549.075 2.218.075.288 0 1.149-.038 1.666-.076l5.547 7.385c.478.65.611.937.611.937v-5.586c0-1.205-.057-1.626-.247-1.913-.155-.21-.459-.44-.976-.479v-.343c.745.037 1.204.075 1.873.075.671 0 1.016 0 1.837-.076v.344c-.247 0-.649.096-.937.421zM373.277 69.11c-.324.363-.345.899-.345 2.544v6.58c0 1.205.06 1.626.25 1.914.152.21.459.44.976.479v.343a60.854 60.854 0 00-2.582-.077c-.671 0-1.818.038-2.563.077v-.343c.247 0 .649-.095.937-.422.324-.364.343-.9.343-2.544v-6.58c0-1.206-.057-1.627-.247-1.914-.155-.21-.46-.44-.976-.478v-.344c.745.038 1.913.076 2.582.076.669 0 1.818-.038 2.563-.076v.344c-.248 0-.65.096-.938.42zM386.955 69.245c-.154.229-.44.898-.937 2.084l-3.96 9.641-1.454.25-3.444-9.718c-.478-1.32-.823-2.143-.899-2.277-.114-.172-.364-.555-.9-.536v-.344c.555.038 1.837.076 2.392.076.573 0 2.008-.038 2.563-.076v.344c-.459 0-.745.096-.9.23a.536.536 0 00-.171.42c0 .23.095.555.288 1.091l2.084 6.006c.403 1.168.536 1.723.536 1.723s.209-.633.631-1.76l2.22-5.988c.19-.536.304-.841.304-1.09 0-.172-.038-.306-.152-.402-.209-.21-.612-.21-.88-.23v-.344c.671.038 1.149.076 1.837.076.611 0 1.166-.019 1.778-.076v.344c-.536-.019-.822.383-.936.556zM397.093 80.93h-5.357c-1.071 0-2.104-.018-3.174.04v-.343c.247 0 .649-.095.937-.422.324-.364.343-.9.343-2.544v-6.58c0-1.206-.057-1.627-.248-1.914-.152-.21-.459-.44-.975-.478v-.344c1.052.057 1.875.057 2.946.057h5.471s-.019 1.588.057 2.468h-.402c-.019-.651-.286-1.09-.65-1.3-.421-.25-.804-.288-1.989-.288h-1.569v4.687h1.607c.687 0 1.204-.038 1.549-.326.269-.21.459-.573.497-1.128h.402c0 .42-.038.689-.038 1.894 0 1.187.019 1.415.038 1.856h-.402c-.038-.498-.19-.824-.421-1.034-.402-.344-.995-.382-1.663-.382h-1.569v4.228c0 .86.153.976 1.185.976h.326c1.052 0 1.816-.04 2.295-.518.249-.248.44-.707.459-1.281h.402c-.076.88-.057 2.677-.057 2.677zM404.19 69.092c-.402 0-.824.057-.824.057v5.662s.441.038.9.038c.269 0 .535-.019.747-.076.267-.076 1.53-.307 1.53-2.907 0-2.698-1.606-2.774-2.353-2.774zm5.911 11.935c-1.99 0-2.468-.802-3.137-1.625-.421-.535-1.856-2.392-2.793-3.767h-.805v2.6c0 1.205.06 1.626.25 1.914.152.21.459.44.976.478v.343a57.392 57.392 0 00-2.506-.076c-.671 0-1.799.037-2.544.076v-.343c.248 0 .65-.095.938-.421.323-.364.342-.9.342-2.544V71.08c0-1.205-.057-1.626-.247-1.913-.153-.21-.459-.44-.976-.479v-.343a39.76 39.76 0 002.066.056c1.378 0 1.701-.056 2.927-.056.44 0 1.416 0 2.18.19 2.277.574 2.544 2.277 2.544 3.042 0 .995-.343 2.793-2.792 3.48l3.251 3.751c.937 1.052 1.587 1.78 2.391 1.818v.324s-.44.076-2.065.076zM416.221 81.046c-.88 0-2.142-.115-3.022-.4v-.307c0-.9-.038-1.53-.076-2.085h.402c.076.574.266 1.07.668 1.378.517.421 1.264.516 1.933.516 2.468 0 2.506-1.627 2.506-2.008 0-1.244-.805-1.704-1.857-2.354l-1.07-.668c-1.378-.862-2.276-1.703-2.276-3.52 0-.958.458-3.349 4.436-3.349 1.723 0 2.946.211 2.946.211s-.057.42-.057 1.032c0 1.072.038 1.378.038 1.378h-.4a1.739 1.739 0 00-.518-1.129c-.497-.496-1.338-.611-1.949-.611-1.971 0-2.201 1.128-2.201 1.779 0 .994.573 1.472 1.606 2.085l1.225.726c1.55.92 2.487 1.74 2.487 3.673 0 2.563-2.027 3.653-4.821 3.653zM427.604 69.11c-.326.363-.345.899-.345 2.544v6.58c0 1.205.057 1.626.249 1.914.153.21.46.44.976.479v.343a60.8 60.8 0 00-2.584-.077c-.669 0-1.816.038-2.563.077v-.343c.25 0 .652-.095.937-.422.326-.364.345-.9.345-2.544v-6.58c0-1.206-.057-1.627-.249-1.914-.153-.21-.457-.44-.974-.478v-.344c.745.038 1.911.076 2.582.076.669 0 1.816-.038 2.563-.076v.344c-.25 0-.65.096-.937.42zM435.925 69.244c-1.016 0-1.359.057-1.359.057v9.776c0 .555.057.84.46.954.19.06.497.06.918.06 2.906 0 4.15-1.53 4.15-5.511 0-4.858-2.525-5.336-4.169-5.336zm2.601 11.42c-.593.172-1.646.306-3.117.306-.978 0-1.685-.058-2.546-.058-.669 0-1.473.019-2.218.058v-.343c.247 0 .649-.095.937-.422.324-.364.345-.9.345-2.544v-6.58c0-1.206-.059-1.627-.25-1.914-.152-.21-.459-.44-.975-.478v-.344s.728.057 2.122.057c.614 0 1.761-.038 3.139-.038 1.721 0 7.001.153 7.001 5.949 0 4.496-2.66 5.854-4.438 6.352zM449.792 72.84c-.419-1.205-.516-1.722-.516-1.722l-1.588 4.285h2.985l-.881-2.563zm3.846 8.053c-.574 0-1.99.038-2.544.077v-.343c.459 0 .745-.095.899-.231a.536.536 0 00.172-.422c0-.228-.096-.553-.286-1.09l-.919-2.638h-3.578l-.974 2.658c-.193.535-.307.842-.307 1.09 0 .173.038.307.152.402.212.212.612.212.881.23v.344c-.669-.04-1.128-.077-1.818-.077-.612 0-1.166.019-1.778.077v-.343c.536.019.821-.384.938-.555.152-.23.44-.9.937-2.087l3.979-9.64 1.395-.249 3.443 9.718c.479 1.32.824 2.142.9 2.277.114.171.364.555.899.536v.343a49.071 49.071 0 00-2.391-.077zM462.551 69.244c-1.013 0-1.358.057-1.358.057v9.776c0 .555.057.84.459.954.193.06.497.06.918.06 2.908 0 4.151-1.53 4.151-5.511 0-4.858-2.525-5.336-4.17-5.336zm2.602 11.42c-.593.172-1.645.306-3.118.306-.976 0-1.685-.058-2.544-.058-.671 0-1.473.019-2.22.058v-.343c.25 0 .652-.095.938-.422.325-.364.345-.9.345-2.544v-6.58c0-1.206-.058-1.627-.25-1.914-.153-.21-.459-.44-.976-.478v-.344s.728.057 2.125.057c.612 0 1.759-.038 3.137-.038 1.722 0 7.001.153 7.001 5.949 0 4.496-2.659 5.854-4.438 6.352zM354.589 93.819c0-.707-.298-1.223-.734-1.577-.842-.734-2.256-.87-3.099-.87-2.391 0-6.061.517-6.061 7.91 0 4.54 1.549 7.693 6.144 7.693.978 0 2.284-.136 3.016-1.006.353-.381.571-.924.571-1.659h.572c-.055.79-.11 1.632-.11 2.91v.461c-1.224.409-3.179.597-4.593.597-3.426 0-6.279-.978-7.964-3.07-1.088-1.359-1.714-3.234-1.714-5.6 0-4.703 2.664-7.666 6.144-8.915 1.386-.491 3.098-.599 4.131-.599 2.093 0 4.023.299 4.269.299-.055.516-.055 1.142-.055 1.686 0 .707.027 1.387.055 1.74h-.572zM365.137 96.618c-.599-1.714-.734-2.447-.734-2.447l-2.256 6.089h4.239l-1.249-3.642zm5.462 11.443c-.814 0-2.827.053-3.614.108v-.489c.651 0 1.06-.136 1.278-.326.163-.135.243-.353.243-.598 0-.327-.135-.788-.406-1.55l-1.306-3.75h-5.083l-1.387 3.778c-.271.762-.434 1.195-.434 1.549 0 .246.053.436.218.571.299.299.87.299 1.249.326v.489c-.95-.055-1.602-.108-2.582-.108-.87 0-1.657.028-2.527.108v-.489c.76.028 1.168-.544 1.331-.79.218-.325.625-1.275 1.331-2.963l5.656-13.698 1.983-.354 4.893 13.81c.679 1.874 1.17 3.043 1.278 3.234.163.245.517.789 1.278.761v.489a70.095 70.095 0 00-3.399-.108zM387.834 93.818c-.028-.925-.407-1.55-.923-1.85-.599-.354-1.143-.407-2.828-.407h-1.005v12.695c0 1.712.08 2.309.353 2.69.434.651 1.658.707 1.931.707v.516a112.105 112.105 0 00-4.187-.108c-.952 0-3.153.053-4.213.108v-.489c.218 0 1.358-.083 1.875-.651.461-.517.489-1.224.489-3.563V91.562h-1.006c-1.684 0-2.228.052-2.827.406-.517.3-.898.925-.923 1.85h-.571c.107-1.251.08-3.507.08-3.507h14.243s-.025 2.256.083 3.507h-.571zM402.839 86.86l-5.871 2.066-.326-.49 3.805-3.724.191-.055 2.336 1.795-.135.408zm-3.698 4.43c-3.695 0-5.028 3.534-5.028 7.856 0 4.512 1.549 8.047 5.003 8.047 3.695 0 5.029-3.535 5.029-7.857 0-4.512-1.55-8.046-5.004-8.046zm-.163 17.098c-5.625 0-8.941-3.424-8.941-8.889 0-5.652 3.587-9.405 9.242-9.405 5.625 0 8.942 3.425 8.942 8.89 0 5.652-3.587 9.404-9.243 9.404zM423.172 108.114h-7.448c-1.522 0-2.988-.025-4.512.055v-.489c.353 0 .925-.136 1.333-.598.462-.517.489-1.277.489-3.616v-9.35c0-1.712-.082-2.31-.353-2.718-.218-.3-.652-.626-1.387-.68v-.49c1.061.055 3.016.11 3.969.11.95 0 2.963-.055 4.023-.11v.517c-1.143.055-1.74.3-2.121.816-.408.543-.381 1.387-.381 3.506v10.412c0 1.221.218 1.387 1.685 1.387h.464c1.494 0 2.419-.056 3.098-.735.353-.353.624-1.005.652-1.822h.571c-.108 1.25-.082 3.805-.082 3.805zM432.035 91.316c-.463.517-.489 1.279-.489 3.615v9.35c0 1.715.081 2.311.351 2.72.218.298.654.625 1.387.679v.489a86.623 86.623 0 00-3.668-.108c-.952 0-2.584.053-3.642.108v-.489a1.83 1.83 0 001.331-.598c.461-.517.489-1.277.489-3.616v-9.35c0-1.712-.081-2.31-.354-2.718-.218-.3-.652-.626-1.386-.68v-.49c1.06.055 2.718.11 3.67.11s2.582-.055 3.642-.11v.49a1.83 1.83 0 00-1.331.598zM450.327 93.819c0-.707-.298-1.223-.732-1.577-.844-.734-2.256-.87-3.1-.87-2.392 0-6.062.517-6.062 7.91 0 4.54 1.549 7.693 6.144 7.693.978 0 2.284-.136 3.018-1.006.354-.381.569-.924.569-1.659h.572c-.055.79-.108 1.632-.108 2.91v.461c-1.223.409-3.181.597-4.595.597-3.424 0-6.279-.978-7.964-3.07-1.088-1.359-1.712-3.234-1.712-5.6 0-4.703 2.662-7.666 6.142-8.915 1.388-.491 3.1-.599 4.133-.599 2.093 0 4.023.299 4.267.299-.055.516-.055 1.142-.055 1.686 0 .707.027 1.387.055 1.74h-.572zM460.876 96.618c-.599-1.714-.735-2.447-.735-2.447l-2.256 6.089h4.242l-1.251-3.642zm5.462 11.443c-.815 0-2.825.053-3.615.108v-.489c.652 0 1.061-.136 1.279-.326.163-.135.245-.353.245-.598 0-.327-.137-.788-.408-1.55l-1.306-3.75h-5.082l-1.386 3.778c-.273.762-.436 1.195-.436 1.549 0 .246.055.436.218.571.299.299.87.299 1.251.326v.489c-.952-.055-1.604-.108-2.584-.108-.87 0-1.657.028-2.527.108v-.489c.762.028 1.168-.544 1.331-.79.218-.325.626-1.275 1.333-2.963l5.653-13.698 1.986-.354 4.893 13.81c.679 1.874 1.168 3.043 1.276 3.234.163.245.516.789 1.278.761v.489a70.095 70.095 0 00-3.399-.108zM482.605 96.428c-1.014 0-1.359.057-1.359.057v9.776c0 .554.057.84.459.957.191.057.498.057.919.057 2.908 0 4.15-1.53 4.15-5.509 0-4.86-2.525-5.338-4.169-5.338zm2.601 11.421c-.593.171-1.645.304-3.118.304-.975 0-1.684-.057-2.544-.057-.671 0-1.473.019-2.22.057v-.343c.25 0 .652-.095.938-.421.326-.364.345-.899.345-2.544v-6.582c0-1.204-.057-1.626-.25-1.91-.152-.212-.459-.441-.976-.48v-.344s.728.057 2.125.057c.612 0 1.759-.038 3.137-.038 1.72 0 7.001.152 7.001 5.949 0 4.496-2.658 5.854-4.438 6.352zM500.279 108.115h-5.354c-1.073 0-2.106-.019-3.177.038v-.343c.25 0 .652-.095.938-.421.326-.364.345-.899.345-2.544v-6.582c0-1.204-.058-1.626-.25-1.91-.152-.212-.459-.441-.976-.48v-.344c1.052.057 1.875.057 2.946.057h5.471s-.019 1.587.057 2.468h-.4c-.019-.65-.287-1.09-.652-1.3-.421-.25-.802-.288-1.989-.288h-1.568v4.686h1.606c.69 0 1.206-.038 1.549-.324.269-.212.46-.574.498-1.13h.402c0 .421-.038.69-.038 1.894 0 1.187.019 1.416.038 1.856h-.402c-.038-.497-.191-.823-.419-1.033-.402-.344-.995-.382-1.666-.382h-1.568v4.228c0 .859.152.976 1.185.976h.326c1.052 0 1.818-.038 2.296-.517.248-.25.44-.709.459-1.282h.4c-.076.88-.057 2.677-.057 2.677zM355.614 118.813c-.216.324-.62 1.268-1.321 2.94l-5.587 13.6-2.051.351-4.855-13.708c-.675-1.862-1.162-3.022-1.27-3.21-.161-.244-.512-.784-1.268-.756v-.486c.783.054 2.591.107 3.374.107.808 0 2.834-.053 3.615-.107v.486c-.648 0-1.052.136-1.268.324-.161.135-.244.351-.244.592 0 .325.136.783.405 1.539l2.942 8.472c.567 1.647.755 2.43.755 2.43s.296-.891.891-2.483l3.13-8.446c.269-.756.432-1.187.432-1.537 0-.243-.055-.432-.216-.567-.296-.296-.863-.296-1.242-.324v-.486c.946.054 1.619.107 2.59.107.864 0 1.647-.025 2.51-.107v.486c-.755-.028-1.159.539-1.322.783zM364.005 123.884c-.593-1.7-.728-2.428-.728-2.428l-2.239 6.045h4.209l-1.242-3.617zm5.424 11.361c-.81 0-2.806.052-3.589.107v-.487c.648 0 1.052-.133 1.268-.323.163-.133.243-.35.243-.593 0-.324-.135-.783-.404-1.538l-1.295-3.723h-5.046l-1.378 3.75c-.269.756-.432 1.187-.432 1.538 0 .242.056.433.216.566.299.298.864.298 1.243.323v.487c-.944-.055-1.592-.107-2.563-.107-.864 0-1.647.027-2.51.107v-.487c.755.028 1.159-.539 1.322-.78.216-.324.621-1.269 1.321-2.943l5.613-13.599 1.97-.35 4.857 13.706c.675 1.863 1.16 3.023 1.268 3.211.163.243.512.783 1.268.755v.487a69.026 69.026 0 00-3.372-.107zM386.426 135.297h-7.393c-1.511 0-2.967-.025-4.478.055v-.487a1.81 1.81 0 001.32-.592c.46-.512.487-1.268.487-3.59v-9.28c0-1.702-.08-2.294-.351-2.699-.216-.298-.648-.621-1.376-.674v-.487c1.052.054 2.995.107 3.939.107.946 0 2.942-.053 3.993-.107v.514c-1.132.053-1.727.296-2.103.809-.407.539-.379 1.375-.379 3.481v10.335c0 1.214.216 1.375 1.674 1.375h.457c1.486 0 2.402-.053 3.077-.728.352-.351.621-.999.648-1.807h.567c-.108 1.24-.082 3.775-.082 3.775zM397.436 127.501c-1.215 0-1.782-.216-1.782-.216v-.54s.298.027.567.027c.783 0 1.403-.19 1.915-.567.864-.647 1.323-1.888 1.323-3.59 0-3.885-2.267-3.993-3.642-3.993-.459 0-1.135.082-1.135.082v11.871c0 2.107-.025 2.943.379 3.482.377.512.972.755 2.104.808v.487a120.2 120.2 0 00-4.343-.107c-.946 0-2.455 0-3.617.107v-.487c.351 0 .919-.133 1.323-.592.459-.512.487-1.268.487-3.59v-9.28c0-1.702-.083-2.294-.352-2.699-.216-.298-.647-.621-1.375-.674v-.487a68.09 68.09 0 003.236.082c1.511 0 2.429-.055 4.076-.055.54 0 1.968.027 3.047.271 1.971.457 3.778 1.644 3.778 4.479 0 3.589-2.751 5.181-5.989 5.181zM411.573 123.884c-.593-1.7-.728-2.428-.728-2.428l-2.239 6.045h4.209l-1.242-3.617zm5.424 11.361c-.81 0-2.806.052-3.589.107v-.487c.647 0 1.052-.133 1.268-.323.162-.133.243-.35.243-.593 0-.324-.133-.783-.404-1.538l-1.296-3.723h-5.045l-1.376 3.75c-.271.756-.432 1.187-.432 1.538 0 .242.053.433.216.566.297.298.864.298 1.241.323v.487c-.944-.055-1.592-.107-2.563-.107-.864 0-1.647.027-2.51.107v-.487c.755.028 1.161-.539 1.322-.78.216-.324.62-1.269 1.323-2.943l5.613-13.599 1.968-.35 4.857 13.706c.675 1.863 1.16 3.023 1.268 3.211.163.243.514.783 1.27.755v.487a69.108 69.108 0 00-3.374-.107zM428.681 118.598a9.88 9.88 0 00-1.16.081v7.986s.62.053 1.268.053c.378 0 .755-.027 1.051-.107.379-.108 2.159-.432 2.159-4.102 0-3.803-2.266-3.911-3.318-3.911zm8.338 16.837c-2.806 0-3.481-1.133-4.425-2.295-.595-.755-2.618-3.372-3.941-5.315h-1.132v3.67c0 1.7.08 2.293.351 2.699.216.296.648.62 1.376.673v.487a80.647 80.647 0 00-3.535-.108c-.946 0-2.537.053-3.589.108v-.487c.351 0 .919-.133 1.323-.592.457-.513.484-1.269.484-3.59v-9.281c0-1.701-.08-2.294-.351-2.698-.216-.299-.648-.622-1.376-.675v-.487c1.052.055 1.971.083 2.915.083 1.943 0 2.402-.083 4.129-.083.62 0 1.996 0 3.075.271 3.211.808 3.589 3.211 3.589 4.29 0 1.403-.486 3.939-3.94 4.91 0 0 2.997 3.454 4.588 5.29 1.321 1.483 2.239 2.509 3.372 2.562v.459s-.621.109-2.913.109zM449.483 123.884c-.593-1.7-.729-2.428-.729-2.428l-2.239 6.045h4.21l-1.242-3.617zm5.424 11.361c-.811 0-2.806.052-3.59.107v-.487c.648 0 1.052-.133 1.268-.323.163-.133.244-.35.244-.593 0-.324-.134-.783-.405-1.538l-1.295-3.723h-5.045l-1.376 3.75c-.271.756-.432 1.187-.432 1.538 0 .242.053.433.216.566.296.298.864.298 1.24.323v.487c-.944-.055-1.591-.107-2.563-.107-.863 0-1.646.027-2.51.107v-.487c.756.028 1.162-.539 1.323-.78.216-.324.62-1.269 1.323-2.943l5.612-13.599 1.969-.35 4.857 13.706c.675 1.863 1.16 3.023 1.268 3.211.163.243.514.783 1.269.755v.487a69.067 69.067 0 00-3.373-.107zM467.318 114.199l-5.829 2.051-.323-.487 3.777-3.697.191-.053 2.319 1.78-.135.406zm-1.268 4.423c-.459.515-.484 1.269-.484 3.589v9.283c0 1.7.08 2.292.349 2.698.216.297.647.62 1.375.673v.487a85.245 85.245 0 00-3.642-.107c-.944 0-2.563.052-3.615.107v-.487c.352 0 .917-.133 1.323-.592.457-.512.485-1.268.485-3.59v-9.28c0-1.702-.081-2.294-.352-2.699-.216-.298-.647-.621-1.375-.674v-.487c1.052.054 2.698.107 3.642.107.946 0 2.563-.053 3.617-.107v.487a1.82 1.82 0 00-1.323.592zM474.71 135.461c-1.24 0-3.022-.163-4.262-.567v-.432a40.14 40.14 0 00-.108-2.94h.567c.108.809.377 1.512.944 1.941.728.595 1.78.73 2.724.73 3.481 0 3.536-2.294 3.536-2.833 0-1.756-1.134-2.403-2.618-3.32l-1.511-.943c-1.943-1.215-3.21-2.402-3.21-4.965 0-1.35.647-4.722 6.26-4.722 2.427 0 4.154.296 4.154.296s-.08.593-.08 1.456c0 1.511.053 1.943.053 1.943h-.565a2.453 2.453 0 00-.73-1.592c-.701-.7-1.888-.863-2.752-.863-2.778 0-3.102 1.592-3.102 2.51 0 1.403.808 2.079 2.266 2.94l1.727 1.027c2.185 1.295 3.507 2.454 3.507 5.18 0 3.615-2.859 5.154-6.8 5.154zM493.788 118.599c-3.67 0-4.993 3.507-4.993 7.797 0 4.48 1.539 7.987 4.965 7.987 3.67 0 4.993-3.507 4.993-7.799 0-4.478-1.539-7.985-4.965-7.985zm-.163 16.971c-5.585 0-8.876-3.399-8.876-8.823 0-5.613 3.561-9.335 9.172-9.335 5.587 0 8.878 3.398 8.878 8.822 0 5.613-3.561 9.336-9.174 9.336zM77.248 57.268v5.558h-7.362v-5.558h-2.989v13.34h2.989v-5.064h7.362v5.064h2.989v-13.34h-2.99zm-26.356 6.67c0 4.447 2.717 6.794 7.04 6.794 3.83 0 5.51-1.606 5.93-2.174-.494-1.482-1.483-2.47-1.483-2.47-.568.766-1.902 1.753-4.373 1.753-2.544 0-4.15-1.26-4.15-3.903 0-2.667 1.73-3.927 4.15-3.927 2.47 0 3.607 1.11 4.25 1.95 0 0 1.112-1.111 1.482-2.667-.42-.495-1.977-2.15-5.806-2.15-4.323 0-7.04 2.347-7.04 6.794zM97.152 57.27c2.594 4.198 4.99 7.682 5.632 8.621v4.718h3.064v-4.718c.667-.939 3.038-4.423 5.633-8.622h-3.385c-1.977 3.335-3.78 6.003-3.78 6.003s-1.779-2.668-3.755-6.003h-3.409zm-9.568 2.742h3.212c1.803 0 2.545.592 2.545 1.95 0 1.36-.742 1.928-2.545 1.928h-3.212v-3.878zm9.264 10.597c-.963-1.728-2-3.483-2.717-4.62 1.433-.765 2.224-2.124 2.224-4.027 0-3.038-1.977-4.693-5.436-4.693h-6.3v13.34h2.965v-3.952h3.731c.667 1.136 1.507 2.594 2.149 3.952h3.385zM132.34 64.606c1.309-3.064 2.075-4.67 2.075-4.67s.766 1.606 2.076 4.67h-4.151zm9.783 6.002c-3.582-8.597-5.904-13.34-5.904-13.34h-3.607s-2.323 4.743-5.905 13.34h3.163c.494-1.26.963-2.42 1.408-3.458h6.3c.42 1.038.889 2.198 1.408 3.458h3.137zm-17.967-8.522s.371-.57.371-1.557c0-1.78-1.038-3.385-5.559-3.385-3.953 0-5.682 1.483-5.682 3.88 0 5.385 8.572 3.087 8.572 5.805 0 .987-.617 1.482-2.767 1.482-2.148 0-3.088-.618-3.088-2.15-1.902.124-2.841.495-2.841.495 0 2.47 1.606 4.076 5.881 4.076 3.952 0 5.73-1.359 5.73-3.903 0-5.065-8.572-2.767-8.572-5.608 0-1.112.742-1.705 2.767-1.705 2.1 0 2.594.766 2.594 1.58 0 .618-.247.99-.247.99h2.841zM157.163 57.27v13.34h3.014V57.27h-3.014zm-9.751 10.424V57.27h-3.039v13.34h9.882v-2.915h-6.843zM174.872 62.086s.371-.57.371-1.557c0-1.78-1.037-3.385-5.559-3.385-3.952 0-5.682 1.483-5.682 3.88 0 5.385 8.572 3.087 8.572 5.805 0 .987-.617 1.482-2.766 1.482s-3.088-.618-3.088-2.15c-1.903.124-2.841.495-2.841.495 0 2.47 1.605 4.076 5.88 4.076 3.952 0 5.731-1.359 5.731-3.903 0-5.065-8.573-2.767-8.573-5.608 0-1.112.742-1.705 2.767-1.705 2.1 0 2.595.766 2.595 1.58 0 .618-.248.99-.248.99h2.841zM71.328 88.718c1.283-2.98 2.086-4.654 2.086-4.654s.803 1.674 2.086 4.654h-4.172zm8.965 5.595c-3.325-8.002-5.503-12.381-5.503-12.381h-2.73s-2.177 4.379-5.502 12.38h2.43c.528-1.283 1.032-2.475 1.468-3.552h5.915c.46 1.077.941 2.269 1.468 3.553h2.454zm-24.258-2.178v-3.073h4.035c1.582 0 2.27.596 2.27 1.583 0 1.1-.688 1.49-2.178 1.49h-4.127zm3.164-8.118c1.467 0 2.063.574 2.063 1.583 0 1.01-.504 1.49-1.88 1.49h-3.347v-3.073h3.164zm3.05 3.624c.504-.23 1.306-.918 1.306-2.339 0-2.018-1.17-3.37-4.013-3.37h-5.8v12.38h6.443c2.865 0 4.47-1.123 4.47-3.552 0-1.95-1.283-2.935-2.407-3.119zm-22.31-5.71h-2.315v6.696c0 4.333 2.086 5.8 5.892 5.8 3.807 0 5.916-1.467 5.916-5.8v-6.695h-2.316v6.442c0 2.89-1.215 3.784-3.6 3.784-2.384 0-3.577-.894-3.577-3.784v-6.442zm-17.425 6.191c0 4.127 2.591 6.306 6.49 6.306 3.599 0 5.113-1.56 5.502-2.087-.413-1.169-1.215-1.949-1.215-1.949-.55.757-1.812 1.789-4.265 1.789-2.499 0-4.218-1.284-4.218-4.059 0-2.774 1.788-4.058 4.218-4.058 2.453 0 3.554 1.1 4.15 1.926 0 0 .917-.917 1.216-2.087-.39-.504-1.79-2.086-5.389-2.086-3.898 0-6.489 2.178-6.489 6.305zm-6.098-6.19v8.644L8.53 81.932H6.74v12.38h2.294v-8.644l7.863 8.645h1.812V81.932h-2.293zM0 81.932v12.38h2.316v-12.38H0zM116.458 88.214v-4.082h3.21c1.903 0 2.728.597 2.728 2.042 0 1.42-.825 2.04-2.728 2.04h-3.21zm8.598 6.099a89.311 89.311 0 00-2.591-4.403c1.445-.641 2.247-1.88 2.247-3.736 0-2.844-1.903-4.242-4.999-4.242h-5.548v12.38h2.293v-3.896h3.255l.528-.024c.642 1.124 1.49 2.568 2.133 3.92h2.682zm-25.478-6.19c0-2.867 1.835-4.151 4.311-4.151 2.454 0 4.288 1.284 4.288 4.15 0 2.867-1.834 4.127-4.288 4.127-2.476 0-4.31-1.26-4.31-4.127zm-2.292 0c0 4.034 2.613 6.305 6.603 6.305 3.966 0 6.581-2.27 6.581-6.306 0-4.035-2.615-6.305-6.581-6.305-3.99 0-6.603 2.27-6.603 6.305zM84.832 92.02v-7.796h2.636c2.89 0 4.403 1.239 4.403 3.898 0 2.66-1.513 3.898-4.403 3.898h-2.636zm-2.293-10.088v12.38h4.7c4.724 0 6.994-2.131 6.994-6.19 0-4.081-2.27-6.19-6.994-6.19h-4.7zM152.811 92.021v-7.796h2.637c2.889 0 4.402 1.238 4.402 3.898s-1.513 3.898-4.402 3.898h-2.637zm-2.292-10.089v12.382h4.7c4.723 0 6.993-2.133 6.993-6.191 0-4.082-2.27-6.19-6.993-6.19h-4.7zm-18.732 6.787c1.284-2.98 2.087-4.654 2.087-4.654s.802 1.674 2.086 4.654h-4.173zm8.965 5.595c-3.324-8.002-5.503-12.382-5.503-12.382h-2.729s-2.177 4.38-5.502 12.382h2.43c.528-1.285 1.032-2.476 1.468-3.554h5.916c.458 1.078.94 2.27 1.467 3.553h2.453zM168.401 92.113v-2.821h5.984v-1.994h-5.984v-3.165h6.902v-2.2h-9.218v12.38h9.562v-2.2h-7.246zM86.55 115.816v-2.82h5.985v-1.994H86.55v-3.165h6.901v-2.201h-9.217v12.382h9.561v-2.202h-7.245zm-9.055-10.18v8.644l-7.888-8.644H67.82v12.382h2.292v-8.645l7.865 8.645h1.811v-12.382h-2.292zM174.89 110.107s.344-.551.344-1.468c0-1.627-.963-3.118-4.93-3.118-3.508 0-5.044 1.376-5.044 3.577 0 5.022 7.91 2.705 7.91 5.503 0 1.1-.619 1.604-2.751 1.604-2.224 0-3.096-.618-3.096-2.2-1.421.115-2.178.389-2.178.389 0 2.247 1.376 3.738 5.228 3.738 3.439 0 5.09-1.215 5.09-3.531 0-4.701-7.933-2.431-7.933-5.366 0-1.192.733-1.811 2.774-1.811 2.109 0 2.637.826 2.637 1.651 0 .619-.229 1.032-.229 1.032h2.178zm-23.698 1.719c0-2.865 1.834-4.15 4.31-4.15 2.454 0 4.288 1.285 4.288 4.15 0 2.867-1.834 4.127-4.288 4.127-2.476 0-4.31-1.26-4.31-4.127zm-2.293 0c0 4.036 2.614 6.306 6.603 6.306 3.966 0 6.581-2.27 6.581-6.306 0-4.035-2.615-6.305-6.581-6.305-3.989 0-6.603 2.27-6.603 6.305zm-6.044-6.19v12.382h2.316v-12.382h-2.316zm-15.168 6.19c0 4.127 2.591 6.306 6.489 6.306 3.599 0 5.113-1.559 5.502-2.087-.412-1.169-1.215-1.949-1.215-1.949-.55.757-1.811 1.789-4.264 1.789-2.5 0-4.22-1.284-4.22-4.059 0-2.774 1.789-4.058 4.22-4.058 2.453 0 3.553 1.1 4.149 1.926 0 0 .918-.917 1.216-2.086-.39-.505-1.789-2.087-5.388-2.087-3.898 0-6.489 2.178-6.489 6.305zm-13.999 0c0-2.865 1.833-4.15 4.309-4.15 2.454 0 4.289 1.285 4.289 4.15 0 2.867-1.835 4.127-4.289 4.127-2.476 0-4.309-1.26-4.309-4.127zm-2.294 0c0 4.036 2.615 6.306 6.603 6.306 3.968 0 6.581-2.27 6.581-6.306 0-4.035-2.613-6.305-6.581-6.305-3.988 0-6.603 2.27-6.603 6.305zm-8.611-.687v1.88h3.463v2.499c-.688.298-1.698.527-3.257.527-3.003 0-4.654-1.215-4.654-4.196 0-3.003 1.834-4.218 4.471-4.218 2.43 0 3.623.688 4.471 1.421 0 0 .757-.78 1.101-2.109-.551-.39-2.064-1.422-5.595-1.422-4.105 0-6.764 1.972-6.764 6.305 0 4.334 2.706 6.306 6.856 6.306 3.049 0 4.838-.917 5.526-1.605v-5.388h-5.618z" fill="#335993"/></svg>
