<svg width="400" height="156" fill="none" xmlns="http://www.w3.org/2000/svg"><path d="M337.182 113.793c17.168-1.155 31.67-7.518 43.35-19.086C393.508 81.852 400 65.614 400 46.009c0-17.875-5.102-33.207-16.006-45.39-.316-.353-.859-.619-1.368-.619a1.778 1.778 0 00-1.71 2.269c8.04 21.614 3.361 43.339-10.833 49.086-9.943 4.025-21.986-.832-31.495-11.363-.715-.715-1.93-.734-2.645-.023a1.828 1.828 0 00-.181 2.373l.198.23c8.214 9.269 12.408 20.75 12.408 34.233 0 13.46-4.136 24.767-12.4 33.921a1.775 1.775 0 001.214 3.067z" fill="#006CB7"/><path d="M5.713 133.342c0 4.539 9.881 2.962 9.881 9.421 0 2.848-2.23 5.383-6.112 5.383-2.347 0-4.384-.923-5.691-1.806l.73-1.462c1.038.769 3.076 1.806 4.998 1.806 2.692 0 4.23-1.499 4.23-3.842 0-5.154-9.767-3.156-9.767-9.536 0-2.461 1.77-4.77 5.73-4.77 2 0 4.152.386 5.806 1.388l-.616 1.42c-1.538-.885-3.075-1.269-5.19-1.269-2.692 0-4 1.23-4 3.267zM31.478 147.762l-.269-2.076c-.923.962-3.076 2.46-5.808 2.46-3.92 0-6.343-2.46-6.343-7.575v-11.649h1.884v11.305c0 4.42 1.308 6.305 4.73 6.305 2.076 0 3.96-1.038 5.305-2.192v-15.418H32.9v18.84h-1.422zM44.285 129.998c-4.115 0-5.806 3.691-5.806 7.382h11.343c0-3.691-1.307-7.382-5.537-7.382zm-5.806 8.883c0 5.459 2.731 7.767 6.536 7.767 2.692 0 4.922-1.346 6.038-2.118l.615 1.385c-1.616 1.001-3.961 2.231-6.768 2.231-4.883 0-8.267-3.344-8.267-9.96 0-6.074 2.884-9.65 7.767-9.65 5.114 0 7.268 4.269 7.268 8.999v1.346h-13.19zM64.282 125.424l-3.768-1.384c-1.308-.502-2.269-.04-2.845.998l-1.116-.499c.654-1.731 2.077-2.923 4.268-2.077l3.692 1.384c1.23.461 2.037 0 2.46-1.115l1.115.423c-.345 1.884-1.768 2.999-3.806 2.27zm3.23 22.339v-11.498c0-3.959-1.153-6.19-4.768-6.19-2.307 0-4 1.346-5.268 2.614v15.074h-1.884v-18.841h1.23l.5 2.268c1.038-1.038 3.037-2.653 5.883-2.653 4.23 0 6.23 2.577 6.23 7.19v12.036h-1.924zM84.625 138.687h-5.114c-3.729 0-4.882 1.617-4.882 3.732 0 2.497 1.384 4.265 4.536 4.265 2.192 0 4.23-1.343 5.46-2.883v-5.114zm.54 9.076l-.425-2.538c-1.19 1.459-3.306 2.921-5.958 2.921-3.885 0-5.96-2.653-5.96-5.651 0-3.153 2.306-5.269 6.46-5.269h5.343v-1.769c0-3.727-1.422-5.382-4.69-5.382-2.46 0-4.5.693-5.769 1.269l-.537-1.421c1.308-.579 3.384-1.387 6.575-1.387 4 0 6.229 2.192 6.229 6.576v12.651h-1.269z" fill="#006CB7" opacity=".6"/><path d="M105.585 129.998c-4.114 0-5.805 3.691-5.805 7.382h11.342c0-3.691-1.307-7.382-5.537-7.382zm-5.805 8.883c0 5.459 2.73 7.767 6.536 7.767 2.692 0 4.922-1.346 6.037-2.118l.614 1.385c-1.615 1.001-3.959 2.231-6.767 2.231-4.883 0-8.266-3.344-8.266-9.96 0-6.074 2.882-9.65 7.767-9.65 5.113 0 7.266 4.269 7.266 8.999v1.346H99.78zM128.621 147.763v-11.498c0-3.96-1.039-6.19-4.652-6.19-2.309 0-3.924 1.346-5.192 2.614v15.074h-1.884v-18.841h1.231l.498 2.306c1.039-1.037 2.962-2.692 5.769-2.692 2.691 0 4.46 1.039 5.383 3.001 1.076-1.116 3.153-3.001 5.96-3.001 4.229 0 6.537 2.462 6.537 7.192v12.035h-1.923v-11.498c0-3.997-1.423-6.19-5.038-6.19-1.998 0-3.844 1.269-5.114 2.614.231.885.346 1.885.346 3.039v12.035h-1.921zM148.082 144.495c1.384 1.345 3.114 2.19 5.037 2.19 3.999 0 5.691-2.536 5.691-8.381 0-5.192-1.462-8.229-5.46-8.229-2.076 0-3.999 1.194-5.268 2.499v11.921zm-.154-13.305c1.538-1.577 3.422-2.653 5.729-2.653 5 0 7.074 3.537 7.074 9.767 0 6.691-3.037 9.843-7.612 9.843-2.306 0-3.922-.884-5.345-2.153l.308 2.265v6.81h-1.884v-26.147h1.229l.501 2.268zM173.654 130.615c-.46-.194-1.345-.347-2.46-.347-1.999 0-3.576 1.269-4.652 2.421v15.074h-1.884v-18.841h1.229l.501 2.306c.846-.999 2.576-2.575 4.998-2.575 1.577 0 2.5.343 2.5.343l-.232 1.619zM182.577 129.998c-4.115 0-5.806 3.691-5.806 7.382h11.343c0-3.691-1.307-7.382-5.537-7.382zm-5.806 8.883c0 5.459 2.73 7.767 6.536 7.767 2.692 0 4.922-1.346 6.037-2.118l.616 1.385c-1.616 1.001-3.961 2.231-6.768 2.231-4.882 0-8.267-3.344-8.267-9.96 0-6.074 2.884-9.65 7.767-9.65 5.114 0 7.268 4.269 7.268 8.999v1.346h-13.189zM205.805 147.763v-11.498c0-3.96-1.154-6.19-4.769-6.19-2.307 0-3.998 1.346-5.267 2.614v15.074h-1.884v-18.841h1.23l.501 2.267c1.036-1.036 3.037-2.653 5.883-2.653 4.23 0 6.229 2.578 6.229 7.192v12.035h-1.923zM224.264 131.537c-.961-.692-2.73-1.539-5.153-1.539-4.114 0-5.922 3.344-5.922 8.267 0 4.769 1.538 8.419 5.692 8.419 1.884 0 3.536-.805 5.383-2.767v-12.38zm.192 13.841c-1.231 1.578-3.539 2.768-5.652 2.768-4.498 0-7.537-3.459-7.537-9.881 0-5.497 2.538-9.729 7.804-9.729 2.463 0 4.191.808 5.309 1.502l-.116-3.039v-5.765h1.884v26.529h-1.27l-.422-2.385zM237.532 129.998c-4.114 0-5.804 3.691-5.804 7.382h11.342c0-3.691-1.307-7.382-5.538-7.382zm-5.804 8.883c0 5.459 2.729 7.767 6.535 7.767 2.691 0 4.922-1.346 6.037-2.118l.616 1.385c-1.616 1.001-3.962 2.231-6.768 2.231-4.883 0-8.267-3.344-8.267-9.96 0-6.074 2.883-9.65 7.766-9.65 5.115 0 7.269 4.269 7.269 8.999v1.346h-13.188z" fill="#006CB7" opacity=".8"/><path d="M269.758 146.455c-1.192.731-3.382 1.691-6.075 1.691-4.384 0-7.884-2.615-7.884-9.803 0-6.499 3.5-9.807 7.807-9.807 1.962 0 4.344.424 5.997 1.462l-.614 1.422c-1.537-.922-3.306-1.307-5.383-1.307-3.768 0-5.998 3.193-5.998 8.23 0 5.767 2.307 8.265 6.075 8.265 2.461 0 4.307-.768 5.653-1.651l.422 1.498zM282.027 130.615c-.462-.194-1.346-.347-2.462-.347-1.999 0-3.574 1.269-4.652 2.421v15.074h-1.884v-18.841h1.231l.499 2.306c.846-.999 2.576-2.575 4.999-2.575 1.576 0 2.499.343 2.499.343l-.23 1.619zM290.949 129.998c-4.115 0-5.806 3.691-5.806 7.382h11.344c0-3.691-1.309-7.382-5.538-7.382zm-5.806 8.883c0 5.459 2.731 7.767 6.536 7.767 2.691 0 4.923-1.346 6.037-2.118l.615 1.385c-1.615 1.001-3.961 2.231-6.767 2.231-4.884 0-8.266-3.344-8.266-9.96 0-6.074 2.882-9.65 7.766-9.65 5.114 0 7.267 4.269 7.267 8.999v1.346h-13.188zM315.599 146.455c-1.191.731-3.384 1.691-6.077 1.691-4.38 0-7.881-2.615-7.881-9.803 0-6.499 3.501-9.807 7.806-9.807 1.961 0 4.345.424 5.998 1.462l-.615 1.422c-1.539-.922-3.308-1.307-5.383-1.307-3.767 0-5.999 3.193-5.999 8.23 0 5.767 2.307 8.265 6.074 8.265 2.463 0 4.31-.768 5.654-1.651l.423 1.498zM325.946 129.998c-4.114 0-5.806 3.691-5.806 7.382h11.343c0-3.691-1.309-7.382-5.537-7.382zm-5.806 8.883c0 5.459 2.731 7.767 6.536 7.767 2.69 0 4.921-1.346 6.036-2.118l.616 1.385c-1.616 1.001-3.962 2.231-6.768 2.231-4.883 0-8.266-3.344-8.266-9.96 0-6.074 2.882-9.65 7.767-9.65 5.113 0 7.267 4.269 7.267 8.999v1.346H320.14zM179.117 69.905c-1.676.822-5.411 1.23-9.922 1.23h-3.384V50.263h2.672c4.363 0 8.126.346 10.012 1.04 1.884.694 3.345 1.889 4.382 3.575 1.04 1.691 1.56 3.576 1.56 5.657 0 2.116-.465 4.003-1.401 5.658-.937 1.656-2.243 2.892-3.919 3.713zm25.044 37.866c-1.436-2.078-3.341-5.173-5.717-9.294-3.778-6.546-6.708-11.13-8.791-13.763-2.084-2.627-4.217-4.705-6.397-6.233 3.711-1.52 7.199-3.82 9.184-6.9 1.987-3.085 2.98-6.734 2.98-10.958 0-6.195-2.025-11.113-6.081-14.747-4.052-3.632-10.173-5.453-17.073-5.453h-17.094v72.541h10.639V81.392h.759c3.194 0 5.467.39 6.822 1.168 1.35.779 2.868 2.048 4.547 3.811 1.679 1.76 3.526 4.13 5.54 7.113l3.27 5.663 3.024 5.298 1.903 2.855c.291.419.487.712.586.886l2.975 4.778h12.537l-3.613-5.193zM216.629 40.423h36.388v10.239h-25.613v18.29h25.613v10.207h-25.613v33.805h-10.775V40.423zM125.447 96.361c-4.891 5.314-10.992 7.974-18.307 7.974-7.28 0-13.345-2.61-18.188-7.819-4.845-5.21-7.266-11.74-7.266-19.59 0-8.09 2.415-14.743 7.243-19.955 4.829-5.207 10.993-7.814 18.493-7.814 7.126 0 13.134 2.635 18.025 7.891 4.892 5.267 7.338 11.753 7.338 19.464 0 7.918-2.446 14.532-7.338 19.85zm7.925-46.335c-7.011-7.094-15.79-10.642-26.332-10.642-10.544 0-19.264 3.548-26.16 10.642-6.9 7.101-10.348 16.069-10.348 26.9 0 10.562 3.424 19.345 10.274 26.356 6.848 7.009 15.415 10.514 25.698 10.514 10.77 0 19.693-3.505 26.772-10.514 7.077-7.011 10.616-15.868 10.616-26.559 0-10.705-3.507-19.596-10.52-26.697zM317.732 96.361c-4.893 5.314-10.994 7.974-18.308 7.974-7.28 0-13.344-2.61-18.189-7.819-4.844-5.21-7.264-11.74-7.264-19.59 0-8.09 2.413-14.743 7.241-19.955 4.83-5.207 10.994-7.814 18.494-7.814 7.125 0 13.133 2.635 18.026 7.891 4.891 5.267 7.337 11.753 7.337 19.464 0 7.918-2.446 14.532-7.337 19.85zm7.923-46.335c-7.013-7.094-15.79-10.642-26.332-10.642-10.543 0-19.264 3.548-26.161 10.642-6.899 7.101-10.347 16.069-10.347 26.9 0 10.562 3.424 19.345 10.275 26.356 6.848 7.009 15.416 10.514 25.696 10.514 10.771 0 19.695-3.505 26.771-10.514 7.078-7.011 10.617-15.868 10.617-26.559 0-10.705-3.506-19.596-10.519-26.697zM60.534 96.361c-5.561 5.314-12.494 7.974-20.805 7.974-8.275 0-15.164-2.61-20.67-7.819-5.505-5.21-8.256-11.74-8.256-19.59 0-8.09 2.743-14.743 8.23-19.955 5.489-5.207 12.491-7.814 21.017-7.814 8.096 0 14.923 2.635 20.484 7.891.062.063.113.119.175.178V45.457c-8.76-3.98-16.72-5.972-23.883-5.972-10.387 0-19.12 3.601-26.203 10.805C3.54 57.489 0 66.368 0 76.926 0 83.572 1.547 89.75 4.64 95.46c3.093 5.718 7.292 10.201 12.6 13.455 5.306 3.254 11.77 4.88 19.39 4.88 9.378 0 17.648-2.076 24.81-6.232V95.486c-.027.019-.057.033-.088.051-.266.275-.538.557-.818.824zM372.649 24.055c-2.495-2.524-5.619-3.788-9.37-3.788-3.751 0-6.852 1.264-9.305 3.788-2.457 2.527-3.683 5.717-3.683 9.571 0 3.757 1.218 6.88 3.655 9.376 2.438 2.496 5.485 3.743 9.145 3.743 3.83 0 7.005-1.247 9.525-3.743 2.518-2.497 3.777-5.644 3.777-9.45 0-3.804-1.248-6.97-3.744-9.497z" fill="#006CB7"/></svg>
