<?xml version="1.0" standalone="no"?>
<!DOCTYPE svg PUBLIC "-//W3C//DTD SVG 20010904//EN"
 "http://www.w3.org/TR/2001/REC-SVG-20010904/DTD/svg10.dtd">
<svg version="1.0" xmlns="http://www.w3.org/2000/svg"
 width="292.000000pt" height="292.000000pt" viewBox="0 0 292.000000 292.000000"
 preserveAspectRatio="xMidYMid meet">
<metadata>
Created by potrace 1.14, written by Peter Selinger 2001-2017
</metadata>
<g transform="translate(0.000000,292.000000) scale(0.100000,-0.100000)"
fill="#000000" stroke="none">
<path d="M0 1460 l0 -1460 1460 0 1460 0 0 1460 0 1460 -1460 0 -1460 0 0
-1460z m1213 624 l238 -6 -3 -87 -3 -86 -50 0 c-27 0 -71 4 -97 8 l-47 8 21
-42 c60 -124 18 -286 -96 -368 -74 -52 -146 -73 -265 -75 -89 -2 -105 -5 -117
-21 -19 -25 -18 -41 5 -64 16 -16 40 -19 202 -23 197 -5 238 -14 308 -62 84
-58 124 -203 87 -314 -37 -111 -164 -204 -324 -237 -154 -32 -369 -13 -479 41
-168 82 -205 286 -67 373 26 17 52 32 58 34 6 3 0 16 -15 33 -15 16 -32 39
-38 51 -15 30 -14 109 3 142 15 29 83 95 107 104 10 4 7 10 -11 23 -153 112
-175 315 -50 458 71 80 202 129 325 121 39 -3 177 -7 308 -11z m925 1 c220
-52 343 -214 344 -455 1 -158 -44 -271 -145 -367 -92 -87 -190 -123 -337 -123
-152 0 -262 42 -349 135 -94 99 -126 196 -119 359 6 131 27 195 92 284 62 84
187 158 296 175 58 10 159 6 218 -8z"/>
<path d="M828 1885 c-35 -19 -63 -92 -54 -140 16 -85 50 -115 130 -115 36 0
52 6 78 29 30 26 33 35 36 100 4 70 4 71 -31 106 -31 31 -41 35 -83 35 -27 -1
-61 -7 -76 -15z"/>
<path d="M725 1094 c-36 -39 -35 -101 3 -137 16 -15 44 -32 63 -37 45 -13 184
-13 234 1 55 16 105 68 105 111 -1 74 -39 88 -238 88 -142 0 -143 0 -167 -26z"/>
<path d="M1948 1830 c-89 -27 -140 -99 -142 -199 -2 -114 27 -172 107 -212 32
-17 54 -20 107 -17 80 4 131 36 161 102 25 55 25 166 0 221 -40 88 -140 133
-233 105z"/>
</g>
</svg>
