<svg version="1.0" xmlns="http://www.w3.org/2000/svg" width="389.333" height="389.333" viewBox="0 0 292 292"><path d="M0 146v146h292V0H0v146zm121.8-62.4l23.3.6-.3 8.6-.3 8.7h-5c-2.7 0-7.1-.4-9.7-.8l-4.7-.8 2.1 4.2c6 12.5 1.8 28.6-9.7 36.8-7.4 5.3-14.5 7.4-26.4 7.6-8.8.1-10.6.5-11.7 2-1.9 2.5-1.7 4.2.5 6.4 1.6 1.6 4 1.9 20.2 2.3 19.7.5 23.8 1.4 30.8 6.2 8.4 5.8 12.4 20.3 8.7 31.4-2.5 7.4-9.2 14.4-17.9 18.7-9.4 4.6-18.7 6.5-32.2 6.5-19 0-31.9-4.1-39.3-12.5-9.1-10.4-8-23.8 2.5-30.5 2.5-1.6 5.1-3.1 5.7-3.3.6-.3 0-1.6-1.5-3.3-3.9-4.3-4.9-6.7-4.9-12.1 0-5.8 2.2-9.7 8.4-14.8l4.5-3.9-2.8-2c-11.6-8.6-15.5-24-9.3-37.1 3.4-7 9.3-12.7 16.8-16.2 7.2-3.3 12.6-4.2 21.4-3.7 4.1.2 18 .7 30.8 1zm92-.1c22 5.2 34.3 21.4 34.4 45.5.1 15.8-4.4 27.1-14.5 36.7-9.2 8.7-19 12.3-33.7 12.3-15.2 0-26.2-4.2-34.9-13.5-9.4-9.9-12.6-19.6-11.9-35.9.6-13.1 2.7-19.5 9.2-28.4 6.2-8.4 18.7-15.8 29.6-17.5 5.8-1 15.9-.6 21.8.8z"/><path d="M82.8 103.7c-6.9 4.3-7.3 17.2-.7 22.7 4.5 3.8 11.7 3.7 16.1-.3 3.2-2.8 3.3-3.2 3.3-10.6 0-7.4-.1-7.8-3.3-10.6-2.6-2.3-4.1-2.9-8-2.9-2.6 0-5.9.8-7.4 1.7zM72.6 182.6c-5.4 5.5-2 15.1 6.2 17.4 4.8 1.3 18.6 1.3 23.4 0 5.6-1.6 10.8-6.9 10.8-11.1-.1-7.4-3.9-8.8-24.1-8.9-13.4 0-13.7 0-16.3 2.6zM194.8 109c-8.9 2.7-14 9.9-14.2 19.9-.2 11.4 2.7 17.2 10.7 21.2 3.2 1.7 5.4 2 10.7 1.7 8-.4 13.1-3.6 16.1-10.2 2.5-5.5 2.5-16.6 0-22.1-4-8.8-14-13.3-23.3-10.5z"/></svg>