<svg width="356" height="84" fill="none" xmlns="http://www.w3.org/2000/svg"><path d="M30.624 25.824a26.398 26.398 0 00-5.472-1.92c-1.92-.512-3.776-.768-5.568-.768-1.664 0-3.008.288-4.032.864-1.024.576-1.536 1.376-1.536 2.4 0 1.088.48 2.016 1.44 2.784 1.024.704 3.008 1.472 5.952 2.304l2.88.864c3.84 1.152 6.752 2.848 8.736 5.088C35.008 39.616 36 42.432 36 45.888c0 2.304-.48 4.416-1.44 6.336-.96 1.856-2.336 3.456-4.128 4.8-1.728 1.344-3.84 2.368-6.336 3.072-2.432.704-5.152 1.056-8.16 1.056-3.264 0-6.176-.288-8.736-.864a31.389 31.389 0 01-7.008-2.496L3.264 47.52c1.856.96 3.776 1.76 5.76 2.4 2.048.576 4.128.864 6.24.864 2.432 0 4.128-.352 5.088-1.056 1.024-.704 1.536-1.536 1.536-2.496 0-.576-.128-1.056-.384-1.44-.192-.448-.576-.864-1.152-1.248s-1.408-.736-2.496-1.056c-1.024-.384-2.368-.832-4.032-1.344l-2.976-.864c-3.776-1.216-6.528-2.88-8.256-4.992C.864 34.112 0 31.2 0 27.552c0-2.112.416-4.032 1.248-5.76A13.13 13.13 0 014.8 17.184c1.6-1.344 3.52-2.368 5.76-3.072 2.304-.768 4.928-1.152 7.872-1.152s5.664.288 8.16.864c2.56.512 4.864 1.248 6.912 2.208l-2.88 9.792z" fill="url(#prefix__paint0_linear_1636_12)"/><path d="M73.376 24.192H61.568V43.68c0 2.112.448 3.584 1.344 4.416.96.832 2.272 1.248 3.936 1.248 1.28 0 2.56-.128 3.84-.384 1.28-.256 2.272-.608 2.976-1.056l2.112 9.696c-1.088.576-2.752 1.152-4.992 1.728-2.176.512-4.512.768-7.008.768-5.952 0-10.176-1.152-12.672-3.456-2.432-2.304-3.648-5.792-3.648-10.464V24.192h-7.2V14.016h7.2V0h14.112v14.016h11.808v10.176z" fill="url(#prefix__paint1_linear_1636_12)"/><path d="M82.083 60.096v-46.08h11.136l1.44 8.064a20.975 20.975 0 012.112-3.36 13.132 13.132 0 012.976-2.976c1.152-.832 2.464-1.504 3.936-2.016 1.536-.512 3.232-.768 5.088-.768 1.408 0 2.688.192 3.84.576 1.216.32 2.176.704 2.88 1.152l-2.304 11.04c-.704-.384-1.6-.736-2.688-1.056-1.088-.32-2.432-.48-4.032-.48-2.944 0-5.408.96-7.392 2.88-1.92 1.92-2.88 5.248-2.88 9.984v23.04H82.083z" fill="url(#prefix__paint2_linear_1636_12)"/><path d="M119.603 18.048c2.624-1.536 5.568-2.752 8.832-3.648 3.328-.96 6.72-1.44 10.176-1.44 5.696 0 10.272 1.376 13.728 4.128 3.456 2.752 5.184 7.136 5.184 13.152v29.856h-10.848l-1.248-4.608h-.384c-1.28 1.664-3.072 3.04-5.376 4.128-2.24 1.024-4.896 1.536-7.968 1.536-2.624 0-4.928-.384-6.912-1.152-1.92-.768-3.52-1.792-4.8-3.072a13.522 13.522 0 01-2.976-4.512c-.64-1.792-.96-3.68-.96-5.664 0-2.688.576-4.992 1.728-6.912 1.216-1.92 2.816-3.488 4.8-4.704 2.048-1.216 4.416-2.112 7.104-2.688 2.752-.576 5.664-.864 8.736-.864h4.8v-2.496c0-1.728-.608-3.04-1.824-3.936-1.216-.96-2.944-1.44-5.184-1.44-1.92 0-3.808.288-5.664.864-1.856.576-3.904 1.504-6.144 2.784l-4.8-9.312zm23.712 22.176l-3.168.096c-1.792.064-3.296.256-4.512.576-1.216.32-2.208.736-2.976 1.248-.704.448-1.216 1.024-1.536 1.728a4.45 4.45 0 00-.48 2.016c0 1.984.576 3.36 1.728 4.128 1.216.704 2.592 1.056 4.128 1.056s2.912-.448 4.128-1.344c1.28-.896 2.176-1.888 2.688-2.976v-6.528z" fill="url(#prefix__paint3_linear_1636_12)"/><path d="M197.314 24.192h-11.808V43.68c0 2.112.448 3.584 1.344 4.416.96.832 2.272 1.248 3.936 1.248 1.28 0 2.56-.128 3.84-.384 1.28-.256 2.272-.608 2.976-1.056l2.112 9.696c-1.088.576-2.752 1.152-4.992 1.728-2.176.512-4.512.768-7.008.768-5.952 0-10.176-1.152-12.672-3.456-2.432-2.304-3.648-5.792-3.648-10.464V24.192h-7.2V14.016h7.2V0h14.112v14.016h11.808v10.176z" fill="url(#prefix__paint4_linear_1636_12)"/><path d="M247.589 41.184h-29.76v.384c0 3.2 1.247 5.536 3.743 7.008 2.496 1.472 5.632 2.208 9.408 2.208 2.624 0 4.929-.256 6.913-.768s3.648-1.12 4.992-1.824l2.592 9.792c-1.728.832-3.937 1.568-6.625 2.208-2.624.64-5.855.96-9.695.96-3.456 0-6.753-.448-9.889-1.344-3.072-.96-5.791-2.4-8.159-4.32-2.304-1.92-4.161-4.352-5.569-7.296-1.344-2.944-2.015-6.464-2.015-10.56 0-3.648.543-6.976 1.631-9.984 1.152-3.072 2.752-5.696 4.8-7.872s4.481-3.84 7.297-4.992c2.88-1.216 6.047-1.824 9.504-1.824 6.336 0 11.392 1.92 15.167 5.76 3.777 3.84 5.665 9.312 5.665 16.416v6.048zm-14.497-9.696c0-1.088-.128-2.144-.384-3.168s-.672-1.92-1.248-2.688a5.108 5.108 0 00-2.112-1.92c-.832-.512-1.855-.768-3.071-.768-2.24 0-4.097.8-5.569 2.4-1.472 1.536-2.335 3.648-2.591 6.336l14.975-.192z" fill="url(#prefix__paint5_linear_1636_12)"/><path d="M255.884 29.856c0-2.496.512-4.768 1.536-6.816a15.78 15.78 0 014.224-5.376c1.856-1.536 4-2.688 6.432-3.456 2.496-.832 5.216-1.248 8.16-1.248 1.088 0 2.336.096 3.744.288a29.07 29.07 0 013.84.768h19.584v8.736h-4.416l-5.376-.864c.704.96 1.28 2.176 1.728 3.648.512 1.472.768 2.944.768 4.416 0 2.432-.448 4.64-1.344 6.624-.896 1.984-2.208 3.712-3.936 5.184-1.728 1.472-3.84 2.624-6.336 3.456-2.496.768-5.312 1.152-8.448 1.152-.704 0-1.376-.032-2.016-.096-.64-.064-1.28-.16-1.92-.288a4.77 4.77 0 00-1.248 1.056c-.384.448-.576 1.024-.576 1.728 0 .832.288 1.504.864 2.016.64.512 1.888.768 3.744.768h9.696c2.496 0 4.8.256 6.912.768s3.904 1.344 5.376 2.496c1.536 1.152 2.72 2.656 3.552 4.512.832 1.792 1.248 3.968 1.248 6.528 0 2.496-.608 4.8-1.824 6.912-1.216 2.112-2.944 3.936-5.184 5.472-2.176 1.536-4.864 2.72-8.064 3.552-3.136.896-6.624 1.344-10.464 1.344-7.168 0-12.8-1.248-16.896-3.744-4.096-2.496-6.144-6.048-6.144-10.656 0-2.048.672-3.872 2.016-5.472 1.408-1.536 3.36-2.752 5.856-3.648-.768-.512-1.632-1.376-2.592-2.592-.96-1.28-1.44-2.848-1.44-4.704 0-2.176.64-4.032 1.92-5.568 1.344-1.6 3.008-2.88 4.992-3.84-.832-.448-1.728-1.056-2.688-1.824a22.891 22.891 0 01-2.592-2.88 16.442 16.442 0 01-1.92-3.648c-.512-1.408-.768-2.976-.768-4.704zm12.96 32.256c-.768.384-1.44.96-2.016 1.728-.576.768-.864 1.728-.864 2.88 0 1.6.736 2.976 2.208 4.128 1.536 1.152 4.32 1.728 8.352 1.728 3.776 0 6.56-.64 8.352-1.92 1.856-1.216 2.784-2.656 2.784-4.32 0-1.472-.512-2.56-1.536-3.264-1.024-.64-2.752-.96-5.184-.96h-12.096zm13.44-32.448c0-2.24-.608-3.936-1.824-5.088-1.152-1.216-2.624-1.824-4.416-1.824-1.856 0-3.36.608-4.512 1.824-1.152 1.152-1.728 2.848-1.728 5.088s.576 3.968 1.728 5.184c1.216 1.152 2.72 1.728 4.512 1.728 1.856 0 3.36-.576 4.512-1.728 1.152-1.216 1.728-2.944 1.728-5.184z" fill="url(#prefix__paint6_linear_1636_12)"/><path fill-rule="evenodd" clip-rule="evenodd" d="M355.402 36.768c0 3.776-.64 7.168-1.92 10.176-1.216 3.008-2.912 5.568-5.088 7.68s-4.736 3.744-7.68 4.896c-2.944 1.088-6.112 1.632-9.504 1.632-3.392 0-6.56-.512-9.504-1.536-2.88-1.088-5.376-2.624-7.488-4.608-2.112-1.984-3.776-4.416-4.992-7.296-1.216-2.944-1.824-6.272-1.824-9.984 0-3.904.608-7.392 1.824-10.464 1.28-3.072 3.008-5.664 5.184-7.776s4.736-3.712 7.68-4.8c2.944-1.152 6.112-1.728 9.504-1.728 3.392 0 6.528.512 9.408 1.536 2.944 1.024 5.472 2.56 7.584 4.608 2.112 1.984 3.776 4.448 4.992 7.392 1.216 2.944 1.824 6.368 1.824 10.272zm-24.096-10.675c2.872 0 5.231.968 7.077 2.903a8.37 8.37 0 011.821 2.51c.734 1.536 1.102 3.398 1.102 5.587 0 2.182-.346 4.058-1.038 5.63a9.02 9.02 0 01-1.731 2.62c-1.847 1.833-4.257 2.75-7.231 2.75-2.872 0-5.282-.917-7.231-2.75a8.821 8.821 0 01-1.266-1.697c-1.002-1.742-1.503-3.927-1.503-6.553 0-2.543.47-4.646 1.409-6.307a8.168 8.168 0 011.36-1.79c1.846-1.935 4.256-2.903 7.231-2.903z" fill="url(#prefix__paint7_linear_1636_12)"/><defs><linearGradient id="prefix__paint0_linear_1636_12" x1="-3.36" y1="111.097" x2="358.64" y2="111.097" gradientUnits="userSpaceOnUse"><stop stop-color="#E24B6F"/><stop offset="1" stop-color="#F6CE67"/></linearGradient><linearGradient id="prefix__paint1_linear_1636_12" x1="-3.36" y1="111.097" x2="358.64" y2="111.097" gradientUnits="userSpaceOnUse"><stop stop-color="#E24B6F"/><stop offset="1" stop-color="#F6CE67"/></linearGradient><linearGradient id="prefix__paint2_linear_1636_12" x1="-3.36" y1="111.097" x2="358.64" y2="111.097" gradientUnits="userSpaceOnUse"><stop stop-color="#E24B6F"/><stop offset="1" stop-color="#F6CE67"/></linearGradient><linearGradient id="prefix__paint3_linear_1636_12" x1="-3.36" y1="111.097" x2="358.64" y2="111.097" gradientUnits="userSpaceOnUse"><stop stop-color="#E24B6F"/><stop offset="1" stop-color="#F6CE67"/></linearGradient><linearGradient id="prefix__paint4_linear_1636_12" x1="-3.36" y1="111.097" x2="358.64" y2="111.097" gradientUnits="userSpaceOnUse"><stop stop-color="#E24B6F"/><stop offset="1" stop-color="#F6CE67"/></linearGradient><linearGradient id="prefix__paint5_linear_1636_12" x1="-3.36" y1="111.097" x2="358.64" y2="111.097" gradientUnits="userSpaceOnUse"><stop stop-color="#E24B6F"/><stop offset="1" stop-color="#F6CE67"/></linearGradient><linearGradient id="prefix__paint6_linear_1636_12" x1="-3.36" y1="111.097" x2="358.64" y2="111.097" gradientUnits="userSpaceOnUse"><stop stop-color="#E24B6F"/><stop offset="1" stop-color="#F6CE67"/></linearGradient><linearGradient id="prefix__paint7_linear_1636_12" x1="-3.36" y1="111.097" x2="358.64" y2="111.097" gradientUnits="userSpaceOnUse"><stop stop-color="#E24B6F"/><stop offset="1" stop-color="#F6CE67"/></linearGradient></defs></svg>